**ABCDEFGHIJKLMNOPQRSTUVWXYZabcdefghijklmnopqrstuvwxyz**************************
**PARASOLID !"#$%&'()*+,-./:;<=>?@[\]^_`{|}~0123456789**************************
**PART1;
MC=AMD64;
MC_MODEL=AMD64 Family 21 Model 2 Stepping 0, AuthenticAMD;
MC_ID=unknown;
OS=Windows_NT;
OS_RELEASE=unknown;
FRU=Parasolid Version 31.1, build 290,  3- 9-2020;
APPL=SOLIDWORKS 2020-2020196;
SITE=;
USER=unknown;
FORMAT=text;
GUISE=transmit;
KEY=диод;
FILE=диод.x_t;
DATE=Sat Apr  3 17:09:52 2021;
**PART2;
SCH=SCH_3101290_31100;
USFLD_SIZE=0;
**PART3;
**END_OF_HEADER*****************************************************************
T51 : TRANSMIT FILE created by modeller version 310129023 SCH_3101290_31100_1300
6222 0 12 34 CCCCCCI4 mesh1006 0 I8 polyline1008 0 CCCCCCCDI5 owner1040 0 CCCCCC
I13 boundary_mesh1006 0 I17 boundary_polyline1008 0 CCCA16 index_map_offset0 0 1
 dA9 index_map82 0 A17 node_id_index_map82 0 A20 schema_embedding_map82 0 A5 chi
ld12 0 A14 lowest_node_id0 0 1 dA16 mesh_offset_data206 0 Z1 242 2 3 0 0 0 0 0 0
 1e3 1e-8 0 4 0 1 0 1 1 5 6 7 0 0 0 8 9 0 0 0 0 0 0 0 0 81 255 2 2 231 10 1 11 0
 0 0 0 12 70 11 CI9 list_type0 0 1 uI10 notransmit0 0 1 lCCCDCCDI12 finger_index
0 0 1 dI12 finger_block1012 0 CZ3 0 4 T1 0 0 9 20 1 13 13 13 255 5 31 0 1 0 14 0
 0 15 0 51 255 6 30 0 14 16 0 0 -0 -.00525 -.005 0 1 0 6e-4 0 0 1 31 255 7 7 0 9
 17 0 0 +0 -.00525 -.005 0 -1 0 0 0 -1 6e-4 19 8 CCCCCCCA5 owner12 0 Z8 9 0 1 15
 0 18 V0 16 255 9 5 0 ?19 0 20 7 0 0 1 17 255 19 0 21 19 19 0 22 9 0 0 +16 20 64
 0 ?23 9 24 17 0 0 1 17 23 0 25 23 23 0 26 20 0 0 +16 24 70 0 ?27 20 28 29 0 0 1
 31 17 103 0 20 29 7 0 +0 -.001 -.005 0 -1 0 -1 0 0 6e-4 31 29 104 0 24 30 17 0
 +0 0 -.004 0 0 -1 -1 0 0 6e-4 31 30 105 0 28 31 29 0 +0 0 -.00375 0 0 -1 -1 0 0
 6e-4 16 28 111 0 ?32 24 33 30 0 0 1 31 31 158 0 34 35 30 0 +0 0 -.00375 0 0 1 1
 0 0 .00225 16 34 112 0 ?36 37 38 31 0 0 1 31 35 159 0 37 39 31 0 +0 0 .00375 0
 0 1 1 0 0 .00225 16 37 113 0 ?40 33 34 35 0 0 1 31 39 160 0 33 41 35 0 +0 0 .00
375 0 0 1 1 0 0 6e-4 16 33 116 0 ?42 28 37 39 0 0 1 31 41 161 0 38 43 39 0 +0 43
3680868994202e-33 .004 0 0 1 1 0 0 6e-4 16 38 115 0 ?44 34 45 41 0 0 1 31 43 162
 0 45 46 41 0 +0 -.001 .005 0 -1 -3580952204768885e-31 1 0 0 6e-4 16 45 114 0 ?4
7 38 48 43 0 0 1 31 46 163 0 48 0 43 0 +0 -.00525 .005 0 -1 0 0 0 -1 6e-4 16 48
 117 0 ?49 45 0 46 0 0 1 17 49 0 50 49 49 0 51 48 0 0 +15 255 50 148 0 49 52 0 1
7 51 0 53 51 51 0 49 48 0 0 -15 53 137 0 51 54 0 14 255 54 133 55 ?56 57 58 5 59
 -0 0 52 56 18 81 1 55 232 60 54 61 0 0 62 63 14 56 138 62 ?64 54 65 5 66 -0 0 5
4 64 18 14 57 129 67 ?54 68 69 5 70 -0 0 64 68 18 15 58 136 0 47 54 53 51 59 156
 0 54 71 66 0 -0 -.00342215390876568 .005 0 1 3580952204768885e-31 6e-4 0 -35809
52204768885e-31 1 14 52 146 72 ?0 64 50 5 71 +0 0 0 54 18 13 18 10 0 0 0 0 0 0 8
 14 14 14 27 73 ?74 0 75 5 6 -0 0 74 0 18 81 1 73 236 60 14 76 0 72 77 78 14 74
 1 77 ?79 14 21 5 16 +0 0 80 14 18 15 75 26 0 22 14 25 17 22 0 75 22 22 0 19 9 0
 0 -15 25 74 0 23 14 0 81 1 77 237 60 74 81 0 73 82 83 14 79 82 82 ?80 74 84 5 8
5 +0 0 86 80 18 15 21 4 0 19 74 0 50 255 16 3 0 74 87 6 0 +0 -.00525 -.005 0 -1
 0 0 0 -1 14 80 86 88 ?86 79 89 5 87 +0 0 79 74 18 81 1 88 239 60 80 90 0 82 91
 92 14 86 121 91 ?68 80 93 5 94 -0 0 68 79 18 15 89 88 0 26 80 95 54 255 87 99 0
 80 85 16 0 +0 -.001 -.004 -1 0 0 .001 6e-4 0 0 1 51 85 100 0 79 94 87 0 +0 0 -.
00375 0 0 -1 6e-4 -1 0 0 51 94 151 0 86 70 85 0 -0 0 .00375 0 0 -1 .00225 -1 0 0
 50 70 152 0 57 96 94 0 +0 0 -.00375 0 0 1 1 0 0 50 96 153 0 68 97 70 0 +0 0 .00
375 0 0 1 1 0 0 14 68 125 98 ?57 86 99 5 96 +0 0 57 86 18 51 97 154 0 64 66 96 0
 -0 0 .004 0 0 -1 6e-4 -1 0 0 14 64 142 100 ?52 56 101 5 97 -0 0 56 57 18 54 66
 155 0 56 59 97 0 -0 -.001 .004 -1 0 0 .001 6e-4 0 0 1 81 1 100 242 60 64 102 0
 98 0 103 15 101 144 0 42 64 104 17 42 0 101 42 42 0 105 33 0 0 +15 104 145 0 10
6 64 0 17 106 0 104 106 106 0 44 38 0 0 -17 44 0 65 44 44 0 106 38 0 0 +15 65 14
0 0 44 56 107 15 107 141 0 108 56 0 17 108 0 107 108 108 0 47 45 0 0 -17 47 0 58
 47 47 0 108 45 0 0 +17 105 0 99 105 105 0 42 33 0 0 -15 99 127 0 105 68 109 15
 109 128 0 40 68 0 17 40 0 109 40 40 0 110 37 0 0 +17 110 0 93 110 110 0 40 37 0
 0 -15 93 123 0 110 86 111 15 111 124 0 36 86 0 17 36 0 111 36 36 0 112 34 0 0 +
17 112 0 113 112 112 0 36 34 0 0 -15 113 132 0 112 57 0 80 255 1 60 114 115 9000
 1 1 1 1 1 1 1 1 0 FFFFTFTFFFFFFF1 81 1 102 204 116 64 0 100 117 118 119 81 1 98
 241 60 68 120 0 91 100 121 82 255 1 103 1233584307 81 1 120 200 116 68 0 98 122
 123 124 81 1 91 240 60 86 122 0 88 98 125 82 1 121 1232601267 81 1 122 199 116
 86 0 91 90 120 126 82 1 125 1232470195 80 1 116 0 127 8001 0 0 0 0 3 5 0 0 0 FF
FFTFTFFFFFFF2 81 1 90 198 116 80 0 88 128 122 129 83 255 3 126 .1019607843137254
 .1098039215686274 .1019607843137254 81 1 128 197 116 79 0 82 81 90 130 83 3 129
 1 .96078431372549 .890196078431373 81 1 82 238 60 79 128 0 77 88 131 81 1 81 19
6 116 74 0 77 76 128 132 83 3 130 1 .96078431372549 .890196078431373 81 1 76 195
 116 14 0 73 0 81 133 83 3 132 1 .96078431372549 .890196078431373 83 3 133 1 .96
078431372549 .890196078431373 82 1 131 1221525683 79 255 15 127 SDL/TYSA_COLOUR8
1 1 123 201 116 57 0 67 120 61 134 83 3 124 .1019607843137254 .1098039215686274
 .1019607843137254 81 1 67 234 60 57 123 0 62 72 135 81 1 61 202 116 54 0 55 123
 117 136 83 3 134 .1019607843137254 .1098039215686274 .1019607843137254 81 1 117
 203 116 56 0 62 61 102 137 83 3 136 1 .96078431372549 .890196078431373 81 1 62
 233 60 56 117 0 55 67 138 83 3 137 1 .96078431372549 .890196078431373 82 1 138
 1232076979 81 1 72 235 60 52 118 0 67 73 139 82 1 135 1232142515 81 1 118 205 1
16 52 0 72 102 0 140 82 1 139 1232339123 83 3 140 1 .96078431372549 .89019607843
1373 83 3 119 1 .96078431372549 .890196078431373 79 14 115 SWEntUnchanged17 26 0
 89 26 26 0 23 20 0 0 -15 95 89 0 27 80 0 17 27 0 95 27 27 0 141 24 0 0 +17 141
 0 84 141 141 0 27 24 0 0 -15 84 84 0 141 79 142 15 142 85 0 32 79 0 17 32 0 142
 32 32 0 143 28 0 0 +17 143 0 69 143 143 0 32 28 0 0 -15 69 131 0 143 57 113 82
 1 92 1221132467 82 1 83 -1288699745 82 1 78 -1286733645 50 71 157 0 52 0 59 0 +
0 -.00525 .005 0 -1 0 0 0 -1 82 1 63 1231945907 19 15 32 0 1 0 8 5 S0 74 4 CI16
 index_map_offset0 0 1 dCCZ20 13 9 0 0 100 144 145 146 147 148 11 118 2 0 0 0 0
 0 0 0 0 0 0 0 81 2 144 109 149 1 0 145 0 0 0 0 81 2 145 165 150 1 144 146 0 0 0
 151 81 2 146 170 152 1 145 147 0 0 0 153 81 1 147 181 154 1 146 148 0 0 155 81
 2 148 182 156 1 147 11 0 0 157 0 81 2 11 194 158 1 148 2 0 0 0 159 80 2 158 160
 161 9000 0 0 0 0 3 5 0 0 0 FFTFFFFFFFFFFF9 1 82 1 159 1 79 24 161 BODY_IN_LIGHT
WEIGHT_PERM80 2 156 162 163 8004 0 0 0 0 3 5 0 0 0 FFTFFFFFFFFFFF2 3 83 1 157 78
e2 79 16 163 SDL/TYSA_DENSITY80 1 154 164 165 9000 1 1 1 1 1 1 1 1 0 FFTFFFFFFFF
FFF1 82 1 155 832302 79 10 165 BODY_MATCH80 2 152 166 167 9000 0 0 0 0 3 5 0 0 0
 FFTFFFFFFFFFFF9 1 82 1 153 89 79 30 167 LAST_BODY_MODIFYING_FEATURE_ID80 2 150
 168 169 9000 0 0 0 0 3 5 0 0 0 FFTFFFFFFFFFFF9 1 82 1 151 124 79 19 169 ENT_TIM
E_STAMP_200180 2 149 170 171 9000 0 0 0 0 3 5 0 0 0 FFTFFFFFFFFFFF9 1 79 16 171
 BODY_RECIPE_200180 2 10 172 173 9000 0 0 0 0 3 5 0 0 0 FFTFFFFFFFFFFF9 1 82 1 1
2 107 79 12 173 ATOM_ID_20011 0 
