**ABCDEFGHIJKLMNOPQRSTUVWXYZabcdefghijklmnopqrstuvwxyz**************************
**PARASOLID !"#$%&'()*+,-./:;<=>?@[\]^_`{|}~0123456789**************************
**PART1;
MC=AMD64;
MC_MODEL=AMD64 Family 21 Model 2 Stepping 0, AuthenticAMD;
MC_ID=unknown;
OS=Windows_NT;
OS_RELEASE=unknown;
FRU=Parasolid Version 31.1, build 290,  3- 9-2020;
APPL=SOLIDWORKS 2020-2020196;
SITE=;
USER=unknown;
FORMAT=text;
GUISE=transmit;
KEY=стабилитрон;
FILE=стабилитрон.x_t;
DATE=Sat Apr  3 17:24:33 2021;
**PART2;
SCH=SCH_3101290_31100;
USFLD_SIZE=0;
**PART3;
**END_OF_HEADER*****************************************************************
T51 : TRANSMIT FILE created by modeller version 310129023 SCH_3101290_31100_1300
6222 0 12 34 CCCCCCI4 mesh1006 0 I8 polyline1008 0 CCCCCCCDI5 owner1040 0 CCCCCC
I13 boundary_mesh1006 0 I17 boundary_polyline1008 0 CCCA16 index_map_offset0 0 1
 dA9 index_map82 0 A17 node_id_index_map82 0 A20 schema_embedding_map82 0 A5 chi
ld12 0 A14 lowest_node_id0 0 1 dA16 mesh_offset_data206 0 Z1 236 2 3 0 0 0 0 0 0
 1e3 1e-8 0 4 0 1 0 1 1 5 6 7 0 0 0 8 9 0 0 0 0 0 0 0 0 81 255 2 2 225 10 1 11 0
 0 0 0 12 70 11 CI9 list_type0 0 1 uI10 notransmit0 0 1 lCCCDCCDI12 finger_index
0 0 1 dI12 finger_block1012 0 CZ3 0 4 T1 0 0 9 20 1 13 13 13 255 5 31 0 1 0 14 0
 0 15 0 51 255 6 30 0 14 16 0 0 -0 0 .00235 0 0 -1 .00135 -1 0 0 31 255 7 25 0 1
7 18 0 0 +0 0 -.00235 0 0 1 1 0 0 .00135 19 8 CCCCCCCA5 owner12 0 Z8 9 0 1 15 0
 19 V0 16 255 9 121 0 ?20 0 21 22 0 0 1 17 255 20 0 23 20 20 0 24 9 0 0 +16 21 5
7 0 ?25 9 26 27 0 0 1 31 22 162 0 9 0 28 0 +0 0 .00235 0 0 1 1 0 0 4e-4 31 28 16
1 0 29 22 30 0 +0 -824570527200268e-34 .003 0 0 1 1 0 0 4e-4 16 29 132 0 ?31 32
 0 28 0 0 1 31 30 160 0 32 28 33 0 +0 -.001 .004 0 -1 1268570041846568e-31 1 0 0
 4e-4 16 32 133 0 ?34 35 29 30 0 0 1 31 33 159 0 35 30 27 0 +0 -.00435 .004 0 -1
 644684907461316e-30 1 0 0 4e-4 16 35 128 0 ?36 37 32 33 0 0 1 31 27 104 0 21 33
 38 0 +0 0 -.00235 0 0 -1 -1 0 0 4e-4 31 38 103 0 37 27 39 0 +0 0 -.003 0 0 -1 -
1 0 0 4e-4 16 37 72 0 ?40 41 35 38 0 0 1 31 39 102 0 41 38 42 0 +0 -.001 -.004 0
 -1 -216840434497101e-30 -1 0 0 4e-4 16 41 73 0 ?43 44 37 39 0 0 1 31 42 101 0 4
4 39 18 0 +0 -.00435 -.004 0 -1 0 -1 0 0 4e-4 16 44 67 0 ?45 17 41 42 0 0 1 31 1
8 7 0 26 42 7 0 +0 0 .00235 0 0 1 1 0 0 .00135 16 26 5 0 ?46 21 17 18 0 0 1 17 4
6 0 47 46 46 0 48 26 0 0 +16 17 20 0 ?49 26 44 7 0 0 1 17 49 0 50 49 49 0 51 17
 0 0 +15 255 50 28 0 49 14 0 17 51 0 52 51 51 0 49 17 0 0 -15 52 19 0 51 53 0 14
 255 53 18 54 ?55 56 57 5 16 -0 0 58 56 19 81 1 54 226 59 53 60 0 0 61 62 14 55
 77 61 ?63 53 64 5 65 +0 0 66 63 19 14 56 1 67 ?53 14 68 5 69 +0 0 53 14 19 15 5
7 59 0 70 53 52 50 255 16 24 0 53 69 6 0 +0 0 -.00235 0 0 1 1 0 0 14 58 90 71 ?7
2 73 74 5 75 +0 0 73 53 19 13 19 10 0 0 0 0 0 0 8 14 14 14 27 76 ?56 0 77 5 6 -0
 0 56 0 19 81 1 76 230 59 14 78 0 71 79 80 15 77 26 0 48 14 50 17 48 0 77 48 48
 0 46 26 0 0 -80 255 1 59 81 82 9000 1 1 1 1 1 1 1 1 0 FFFFTFTFFFFFFF1 81 1 78 1
91 83 14 0 76 0 84 85 81 1 71 229 59 58 86 0 67 76 87 81 1 79 231 59 72 88 0 76
 89 90 82 255 1 80 -1136263018 14 72 137 79 ?91 58 92 5 93 +0 0 0 91 19 81 1 88
 198 83 72 0 79 86 94 95 81 1 89 232 59 91 94 0 79 96 97 82 1 90 -265813852 14 9
1 140 89 ?98 72 99 5 100 +0 0 72 98 19 81 1 94 199 83 91 0 89 88 101 102 81 1 96
 233 59 98 101 0 89 103 104 82 1 97 -269811548 14 98 144 96 ?66 91 105 5 106 +0
 0 91 66 19 81 1 101 200 83 98 0 96 94 107 108 81 1 103 234 59 66 107 0 96 109 1
10 82 1 104 -269090652 14 66 148 103 ?0 98 111 5 112 +0 0 98 55 19 81 1 107 201
 83 66 0 103 101 0 113 81 1 109 235 59 63 114 0 103 115 116 82 1 110 -268697436
 14 63 82 109 ?73 55 117 5 118 +0 0 55 73 19 81 1 114 195 83 63 0 109 119 120 12
1 81 1 115 236 59 73 120 0 109 0 122 82 1 116 646512800 14 73 86 115 ?58 63 123
 5 124 +0 0 63 58 19 81 1 120 196 83 73 0 115 114 86 125 82 1 122 647233696 80 1
 83 0 126 8001 0 0 0 0 3 5 0 0 0 FFFFTFTFFFFFFF2 81 1 86 197 83 58 0 71 120 88 1
27 83 255 3 125 1 .96078431372549 .890196078431373 83 3 127 1 .96078431372549 .8
90196078431373 79 255 15 126 SDL/TYSA_COLOUR15 123 88 0 128 73 129 54 255 124 99
 0 73 118 75 0 +0 -.001 -.003 -1 0 0 .001 4e-4 0 0 1 51 118 100 0 63 93 124 0 +0
 0 -.00235 0 0 -1 4e-4 -1 0 0 51 75 98 0 58 124 65 0 +0 -.001 -.004 0 -1 0 4e-4
 0 0 -1 50 65 97 0 55 75 69 0 +0 -.00435 -.004 0 -1 0 -1 0 0 50 69 3 0 56 65 16
 0 +0 0 .00235 0 0 1 1 0 0 50 93 155 0 72 112 118 0 +0 -.00435 .004 0 -1 6446849
07461316e-30 1 0 0 51 112 156 0 66 106 93 0 +0 -.001 .004 0 -1 517827903276659e-
30 4e-4 0 -517827903276659e-30 -1 54 106 157 0 98 100 112 0 +0 -.001 .003 1 0 0
 .001 4e-4 0 0 -1 51 100 158 0 91 0 106 0 +0 0 .00235 0 -1268570041846568e-31 1
 4e-4 0 -1 -1268570041846568e-31 17 128 0 123 128 128 0 43 41 0 0 -15 129 89 0 4
0 73 0 17 40 0 129 40 40 0 130 37 0 0 +17 130 0 117 130 130 0 40 37 0 0 -15 117
 84 0 130 63 131 15 131 85 0 25 63 0 17 25 0 131 25 25 0 70 21 0 0 +17 70 0 57 7
0 70 0 25 21 0 0 -17 43 0 132 43 43 0 128 41 0 0 +15 132 93 0 43 58 0 81 1 119 1
94 83 55 0 61 60 114 133 83 3 121 1 .96078431372549 .890196078431373 81 1 61 227
 59 55 119 0 54 67 134 81 1 60 193 83 53 0 54 84 119 135 83 3 133 1 .96078431372
549 .890196078431373 81 1 84 192 83 56 0 67 78 60 136 83 3 135 .694117647058824
 .0980392156862745 .0980392156862745 81 1 67 228 59 56 84 0 61 71 137 83 3 136 .
694117647058824 .0980392156862745 .0980392156862745 82 1 137 -1138229084 82 1 13
4 650510496 83 3 113 1 .96078431372549 .890196078431373 15 111 150 0 138 66 139
 17 138 0 111 138 138 0 36 35 0 0 -15 139 151 0 34 66 0 17 34 0 139 34 34 0 140
 32 0 0 +17 140 0 105 140 140 0 34 32 0 0 -15 105 146 0 140 98 141 15 141 147 0
 31 98 0 17 31 0 141 31 31 0 142 29 0 0 +17 142 0 99 142 142 0 31 29 0 0 -15 99
 142 0 142 91 23 15 23 143 0 20 91 0 17 36 0 92 36 36 0 138 35 0 0 +15 92 139 0
 36 72 0 83 3 108 1 .96078431372549 .890196078431373 83 3 102 1 .96078431372549
 .890196078431373 83 3 95 1 .96078431372549 .890196078431373 82 1 87 647626912 8
3 3 85 .694117647058824 .0980392156862745 .0980392156862745 79 14 82 SWEntUnchan
ged15 74 92 0 143 58 132 17 143 0 74 143 143 0 45 44 0 0 -17 45 0 64 45 45 0 143
 44 0 0 +15 64 81 0 45 55 0 15 68 123 0 24 56 47 17 24 0 68 24 24 0 20 9 0 0 -15
 47 4 0 46 56 0 82 1 62 -1136525152 19 15 32 0 1 0 8 5 S0 74 4 CI16 index_map_of
fset0 0 1 dCCZ20 13 9 0 0 115 144 145 146 147 148 11 107 2 0 0 0 0 0 0 0 0 0 0 0
 81 2 144 164 149 1 0 145 0 0 0 150 81 2 145 165 151 1 144 146 0 0 0 0 81 2 146
 171 152 1 145 147 0 0 0 153 81 1 147 177 154 1 146 148 0 0 155 81 2 148 178 156
 1 147 11 0 0 157 0 81 2 11 190 158 1 148 2 0 0 0 159 80 2 158 160 161 9000 0 0
 0 0 3 5 0 0 0 FFTFFFFFFFFFFF9 1 82 1 159 1 79 24 161 BODY_IN_LIGHTWEIGHT_PERM80
 2 156 162 163 8004 0 0 0 0 3 5 0 0 0 FFTFFFFFFFFFFF2 3 83 1 157 78e2 79 16 163
 SDL/TYSA_DENSITY80 1 154 164 165 9000 1 1 1 1 1 1 1 1 0 FFTFFFFFFFFFFF1 82 1 15
5 1424422 79 10 165 BODY_MATCH80 2 152 166 167 9000 0 0 0 0 3 5 0 0 0 FFTFFFFFFF
FFFF9 1 82 1 153 79 79 30 167 LAST_BODY_MODIFYING_FEATURE_ID80 2 151 168 169 900
0 0 0 0 0 3 5 0 0 0 FFTFFFFFFFFFFF9 1 79 16 169 BODY_RECIPE_200180 2 149 170 171
 9000 0 0 0 0 3 5 0 0 0 FFTFFFFFFFFFFF9 1 82 1 150 120 79 19 171 ENT_TIME_STAMP_
200180 2 10 172 173 9000 0 0 0 0 3 5 0 0 0 FFTFFFFFFFFFFF9 1 82 1 12 105 79 12 1
73 ATOM_ID_20011 0 
