**ABCDEFGHIJKLMNOPQRSTUVWXYZabcdefghijklmnopqrstuvwxyz**************************
**PARASOLID !"#$%&'()*+,-./:;<=>?@[\]^_`{|}~0123456789**************************
**PART1;
MC=AMD64;
MC_MODEL=AMD64 Family 21 Model 2 Stepping 0, AuthenticAMD;
MC_ID=unknown;
OS=Windows_NT;
OS_RELEASE=unknown;
FRU=Parasolid Version 31.1, build 290,  3- 9-2020;
APPL=SOLIDWORKS 2020-2020196;
SITE=;
USER=unknown;
FORMAT=text;
GUISE=transmit;
KEY=то92;
FILE=то92.x_t;
DATE=Sat Apr  3 17:37:54 2021;
**PART2;
SCH=SCH_3101290_31100;
USFLD_SIZE=0;
**PART3;
**END_OF_HEADER*****************************************************************
T51 : TRANSMIT FILE created by modeller version 310129023 SCH_3101290_31100_1300
6222 0 12 34 CCCCCCI4 mesh1006 0 I8 polyline1008 0 CCCCCCCDI5 owner1040 0 CCCCCC
I13 boundary_mesh1006 0 I17 boundary_polyline1008 0 CCCA16 index_map_offset0 0 1
 dA9 index_map82 0 A17 node_id_index_map82 0 A20 schema_embedding_map82 0 A5 chi
ld12 0 A14 lowest_node_id0 0 1 dA16 mesh_offset_data206 0 Z1 1170 2 3 0 0 0 0 0
 0 1e3 1e-8 0 4 0 1 0 1 1 5 6 7 8 0 0 9 10 11 0 0 0 0 0 0 0 81 255 2 2 1127 12 1
 13 0 0 0 0 14 70 11 CI9 list_type0 0 1 uI10 notransmit0 0 1 lCCCDCCDI12 finger_
index0 0 1 dI12 finger_block1012 0 CZ3 0 4 T1 0 0 9 20 1 15 15 13 255 5 57 0 1 0
 16 0 0 17 0 51 255 6 54 0 16 18 0 0 -0 .0045 0 0 -1 0 .00255 0 0 -1 30 255 7 56
 0 10 19 0 0 +-.00202484567313166 .0045 .00155 0 -1 0 29 255 8 618 0 11 20 0 -89
5e-6 0 3e-4 19 8 CCCCCCCA5 owner12 0 Z9 19 0 1 17 0 21 V0 16 255 10 48 0 ?22 0 2
3 7 0 0 1 18 255 11 616 0 24 0 25 8 ?1 17 255 24 0 26 27 28 11 29 30 0 31 +18 25
 612 0 28 11 32 20 ?1 17 28 0 26 24 33 25 34 35 0 36 -18 32 605 0 33 25 37 38 ?1
 29 20 614 0 25 38 8 -.001645 0 3e-4 29 38 607 0 32 39 20 -.001645 0 -3e-4 29 39
 358 0 37 40 38 895e-6 0 3e-4 18 37 356 0 41 32 42 39 ?1 29 40 354 0 42 43 39 .0
01645 0 3e-4 18 42 352 0 44 37 45 40 ?1 29 43 347 0 45 46 40 895e-6 0 -3e-4 18 4
5 345 0 47 42 48 43 ?1 29 46 98 0 48 49 43 -375e-6 0 3e-4 18 48 96 0 50 45 51 46
 ?1 29 49 94 0 51 52 46 375e-6 0 3e-4 18 51 92 0 53 48 54 49 ?1 29 52 87 0 54 55
 49 -375e-6 0 -3e-4 18 54 85 0 56 51 57 52 ?1 29 55 45 0 58 59 52 .0020248456731
3166 0 .00155 18 58 40 0 60 61 62 55 ?1 29 59 46 0 62 63 55 -.00202484567313166
 0 .00155 18 62 41 0 64 58 65 59 ?1 29 63 18 0 57 66 59 .00202484567313166 .0045
 .00155 18 57 16 0 67 54 61 63 ?1 29 66 15 0 61 68 63 -.00202484567313166 .0045
 .00155 18 61 13 0 69 57 58 66 ?1 29 68 320 0 70 71 66 375e-6 2407412430484045e-
50 -3e-4 18 70 191 0 72 73 74 68 ?1 29 71 321 0 74 75 68 375e-6 -.0012 -3e-4 18
 74 206 0 76 70 77 71 ?1 29 75 322 0 77 78 71 5e-4 -.0012 -3e-4 18 77 204 0 79 7
4 80 75 ?1 29 78 323 0 80 81 75 5e-4 -.0022 -3e-4 18 80 203 0 82 77 83 78 ?1 29
 81 324 0 83 84 78 375e-6 -.0022 -3e-4 18 83 201 0 85 80 86 81 ?1 29 84 325 0 86
 87 81 375e-6 -.0052 -3e-4 18 86 199 0 88 83 89 84 ?1 29 87 326 0 89 90 84 -375e
-6 -.0052 -3e-4 18 89 197 0 91 86 92 87 ?1 29 90 327 0 92 93 87 -375e-6 -.0022 -
3e-4 18 92 196 0 94 89 95 90 ?1 29 93 328 0 95 96 90 -5e-4 -.0022 -3e-4 18 95 19
5 0 97 92 98 93 ?1 29 96 329 0 98 99 93 -5e-4 -.0012 -3e-4 18 98 194 0 100 95 10
1 96 ?1 29 99 330 0 101 102 96 -375e-6 -.0012 -3e-4 18 101 192 0 103 98 104 99 ?
1 29 102 333 0 65 105 99 375e-6 -.0012 3e-4 18 65 213 0 106 62 107 102 ?1 29 105
 334 0 107 108 102 5e-4 -.0012 3e-4 18 107 202 0 109 65 110 105 ?1 29 108 335 0
 110 111 105 5e-4 -.0022 3e-4 18 110 200 0 112 107 113 108 ?1 29 111 336 0 113 1
14 108 375e-6 -.0022 3e-4 18 113 198 0 115 110 116 111 ?1 29 114 337 0 116 117 1
11 375e-6 -.0052 3e-4 18 116 212 0 118 113 119 114 ?1 29 117 338 0 119 120 114 -
375e-6 -.0052 3e-4 18 119 211 0 121 116 122 117 ?1 29 120 339 0 122 123 117 -375
e-6 -.0022 3e-4 18 122 210 0 124 119 125 120 ?1 29 123 340 0 125 126 120 -5e-4 -
.0022 3e-4 18 125 209 0 127 122 128 123 ?1 29 126 341 0 128 129 123 -5e-4 -.0012
 3e-4 18 128 208 0 130 125 73 126 ?1 29 129 342 0 73 131 126 -375e-6 -.0012 3e-4
 18 73 207 0 132 128 70 129 ?1 29 131 581 0 133 134 129 895e-6 -.0012 3e-4 18 13
3 469 0 135 136 137 131 ?1 29 134 582 0 137 138 131 77e-5 -.0012 3e-4 18 137 470
 0 139 133 140 134 ?1 29 138 583 0 140 141 134 77e-5 -.0022 3e-4 18 140 471 0 14
2 137 143 138 ?1 29 141 584 0 143 144 138 895e-6 -.0022 3e-4 18 143 472 0 145 14
0 146 141 ?1 29 144 585 0 146 147 141 895e-6 -.0052 3e-4 18 146 473 0 148 143 14
9 144 ?1 29 147 586 0 149 150 144 .001645 -.0052 3e-4 18 149 457 0 151 146 152 1
47 ?1 29 150 587 0 152 153 147 .001645 -.0022 3e-4 18 152 459 0 154 149 155 150
 ?1 29 153 588 0 155 156 150 .00177 -.0022 3e-4 18 155 461 0 157 152 158 153 ?1
 29 156 589 0 158 159 153 .00177 -.0012 3e-4 18 158 463 0 160 155 161 156 ?1 29
 159 590 0 161 162 156 .001645 -.0012 3e-4 18 161 465 0 163 158 164 159 ?1 29 16
2 593 0 104 165 159 895e-6 -.0012 -3e-4 18 104 452 0 166 101 167 162 ?1 29 165 5
94 0 167 168 162 77e-5 -.0012 -3e-4 18 167 454 0 169 104 170 165 ?1 29 168 595 0
 170 171 165 77e-5 -.0022 -3e-4 18 170 455 0 172 167 173 168 ?1 29 171 596 0 173
 174 168 895e-6 -.0022 -3e-4 18 173 456 0 175 170 176 171 ?1 29 174 597 0 176 17
7 171 895e-6 -.0052 -3e-4 18 176 458 0 178 173 179 174 ?1 29 177 598 0 179 180 1
74 .001645 -.0052 -3e-4 18 179 460 0 181 176 182 177 ?1 29 180 599 0 182 183 177
 .001645 -.0022 -3e-4 18 182 462 0 184 179 185 180 ?1 29 183 600 0 185 186 180 .
00177 -.0022 -3e-4 18 185 464 0 187 182 188 183 ?1 29 186 601 0 188 189 183 .001
77 -.0012 -3e-4 18 188 466 0 190 185 191 186 ?1 29 189 602 0 191 192 186 .001645
 -.0012 -3e-4 18 191 468 0 193 188 136 189 ?1 29 192 603 0 136 194 189 .001645 4
41162993547788e-39 -3e-4 18 136 451 0 195 191 133 192 ?1 29 194 840 0 196 197 19
2 -.00177 -.0012 3e-4 18 196 711 0 198 199 200 194 ?1 29 197 841 0 200 201 194 -
.00177 -.0022 3e-4 18 200 728 0 202 196 203 197 ?1 29 201 842 0 203 204 197 -.00
1645 -.0022 3e-4 18 203 729 0 205 200 206 201 ?1 29 204 843 0 206 207 201 -.0016
45 -.0052 3e-4 18 206 730 0 208 203 209 204 ?1 29 207 844 0 209 210 204 -895e-6
 -.0052 3e-4 18 209 731 0 211 206 212 207 ?1 29 210 845 0 212 213 207 -895e-6 -.
0022 3e-4 18 212 714 0 214 209 215 210 ?1 29 213 846 0 215 216 210 -77e-5 -.0022
 3e-4 18 215 716 0 217 212 218 213 ?1 29 216 847 0 218 219 213 -77e-5 -.0012 3e-
4 18 218 718 0 220 215 221 216 ?1 29 219 848 0 221 222 216 -895e-6 -.0012 3e-4 1
8 221 720 0 223 218 224 219 ?1 29 222 851 0 224 225 219 -.001645 -.0012 3e-4 18
 224 732 0 226 221 0 222 ?1 29 225 852 0 164 227 222 -.00177 -.0012 -3e-4 18 164
 733 0 228 161 229 225 ?1 29 227 853 0 229 230 225 -.00177 -.0022 -3e-4 18 229 7
10 0 231 164 232 227 ?1 29 230 854 0 232 233 227 -.001645 -.0022 -3e-4 18 232 71
2 0 234 229 235 230 ?1 29 233 855 0 235 236 230 -.001645 -.0052 -3e-4 18 235 713
 0 237 232 238 233 ?1 29 236 856 0 238 239 233 -895e-6 -.0052 -3e-4 18 238 715 0
 240 235 241 236 ?1 29 239 857 0 241 242 236 -895e-6 -.0022 -3e-4 18 241 717 0 2
43 238 244 239 ?1 29 242 858 0 244 245 239 -77e-5 -.0022 -3e-4 18 244 719 0 246
 241 247 242 ?1 29 245 859 0 247 248 242 -77e-5 -.0012 -3e-4 18 247 721 0 249 24
4 250 245 ?1 29 248 860 0 250 251 245 -895e-6 -.0012 -3e-4 18 250 723 0 252 247
 253 248 ?1 29 251 861 0 253 254 248 -895e-6 0 -3e-4 18 253 725 0 27 250 199 251
 ?1 29 254 863 0 199 0 251 -.001645 -.0012 -3e-4 18 199 726 0 255 253 196 254 ?1
 17 255 0 256 257 34 199 258 259 0 260 +15 255 256 781 0 255 261 0 17 257 0 256
 36 255 224 260 262 0 263 -17 34 0 256 255 36 32 28 35 0 258 +17 258 0 264 265 2
66 32 255 259 0 0 -16 259 670 0 ?255 267 268 269 0 0 1 17 260 0 270 271 263 199
 257 262 0 266 +15 270 737 0 271 272 0 17 271 0 270 273 260 164 266 274 0 0 +17
 263 0 270 260 273 224 275 268 0 0 -16 262 629 0 ?260 276 35 277 0 0 1 17 266 0
 264 258 228 199 271 274 0 0 -15 264 787 0 266 278 0 17 228 0 264 266 279 164 23
1 280 0 281 -16 274 626 0 ?271 282 280 283 0 0 1 16 282 373 0 ?284 285 274 286 0
 0 1 16 280 630 0 ?231 274 287 288 0 0 1 30 283 816 0 274 288 289 0 +-.001645 -.
0012 -3e-4 -1 0 0 30 288 817 0 280 290 283 0 +-.00177 -.0012 -3e-4 2168404344971
01e-30 -1 0 30 289 815 0 276 283 291 0 +-.001645 0 3e-4 361400724161835e-30 -1 0
 16 276 689 0 ?226 30 262 289 0 0 1 30 291 814 0 30 289 292 0 +-.001645 0 3e-4 1
 0 0 16 30 666 0 ?24 293 276 291 0 0 1 30 292 813 0 293 291 294 0 +-895e-6 0 3e-
4 -361400724161835e-30 -1 0 16 293 662 0 ?295 296 30 292 0 0 1 30 294 812 0 296
 292 297 0 +-895e-6 -.0012 3e-4 1 0 0 16 296 658 0 ?298 299 293 294 0 0 1 30 297
 811 0 299 294 300 0 +-77e-5 -.0012 3e-4 -216840434497101e-30 -1 0 16 299 654 0
 ?301 302 296 297 0 0 1 30 300 810 0 302 297 303 0 +-77e-5 -.0022 3e-4 -1 0 0 16
 302 650 0 ?304 305 299 300 0 0 1 30 303 809 0 305 300 306 0 +-895e-6 -.0022 3e-
4 -144560289664734e-30 -1 0 16 305 646 0 ?307 308 302 303 0 0 1 30 306 808 0 308
 303 309 0 +-.001645 -.0052 3e-4 1 0 0 16 308 686 0 ?211 310 305 306 0 0 1 30 30
9 807 0 310 306 311 0 +-.001645 -.0022 3e-4 144560289664734e-30 -1 0 16 310 683
 0 ?208 312 308 309 0 0 1 30 311 806 0 312 309 313 0 +-.00177 -.0022 3e-4 1 0 0
 16 312 680 0 ?205 314 310 311 0 0 1 30 313 805 0 314 311 315 0 +-.00177 -.0012
 3e-4 216840434497101e-30 -1 0 16 314 677 0 ?202 268 312 313 0 0 1 30 315 804 0
 268 313 286 0 +-.001645 -.0012 3e-4 -1 0 0 16 268 674 0 ?275 259 314 315 0 0 1
 30 286 579 0 282 315 316 0 +895e-6 -44116299349964e-38 3e-4 0 0 -1 30 316 578 0
 285 286 317 0 +895e-6 -.0012 3e-4 0 0 -1 16 285 377 0 ?318 319 282 316 0 0 1 30
 317 577 0 319 316 320 0 +77e-5 -.0012 3e-4 0 0 -1 16 319 381 0 ?321 322 285 317
 0 0 1 30 320 576 0 322 317 323 0 +77e-5 -.0022 3e-4 0 0 -1 16 322 385 0 ?324 32
5 319 320 0 0 1 30 323 575 0 325 320 326 0 +895e-6 -.0022 3e-4 0 0 -1 16 325 389
 0 ?327 328 322 323 0 0 1 30 326 574 0 328 323 329 0 +895e-6 -.0052 3e-4 0 0 -1
 16 328 393 0 ?178 330 325 326 0 0 1 30 329 573 0 330 326 331 0 +.001645 -.0052
 3e-4 0 0 -1 16 330 397 0 ?181 332 328 329 0 0 1 30 331 572 0 332 329 333 0 +.00
1645 -.0022 3e-4 0 0 -1 16 332 401 0 ?184 334 330 331 0 0 1 30 333 571 0 334 331
 335 0 +.00177 -.0022 3e-4 0 0 -1 16 334 405 0 ?187 336 332 333 0 0 1 30 335 570
 0 336 333 337 0 +.00177 -.0012 3e-4 0 0 -1 16 336 409 0 ?190 338 334 335 0 0 1
 30 337 569 0 338 335 339 0 +.001645 -.0012 3e-4 0 0 -1 16 338 413 0 ?193 340 33
6 337 0 0 1 30 339 568 0 340 337 341 0 +.001645 441162993547788e-39 3e-4 0 0 -1
 16 340 369 0 ?195 342 338 339 0 0 1 30 341 567 0 343 339 344 0 +.001645 -594504
191246218e-33 -3e-4 -361400724161835e-30 -1 0 16 343 432 0 ?345 346 347 341 0 0
 1 30 344 566 0 346 341 348 0 +0 -.0012 -3e-4 1 0 0 16 346 435 0 ?349 350 343 34
4 0 0 1 30 348 565 0 350 344 351 0 +.00177 -3838075690598685e-34 -3e-4 -21684043
4497101e-30 -1 0 16 350 438 0 ?352 353 346 348 0 0 1 30 351 564 0 353 348 354 0
 +0 -.0022 -3e-4 -1 0 0 16 353 441 0 ?355 356 350 351 0 0 1 30 354 563 0 356 351
 357 0 +.001645 -237801676498487e-33 -3e-4 -144560289664734e-30 -1 0 16 356 444
 0 ?358 359 353 354 0 0 1 30 357 562 0 359 354 360 0 +0 -.0052 -3e-4 -1 0 0 16 3
59 447 0 ?361 362 356 357 0 0 1 30 360 561 0 362 357 363 0 +895e-6 1293814592499
368e-34 -3e-4 144560289664734e-30 -1 0 16 362 386 0 ?364 365 359 360 0 0 1 30 36
3 560 0 365 360 366 0 +0 -.0022 -3e-4 1 0 0 16 365 382 0 ?175 367 362 363 0 0 1
 30 366 559 0 367 363 368 0 +77e-5 1669671345627675e-34 -3e-4 216840434497101e-3
0 -1 0 16 367 378 0 ?172 369 365 366 0 0 1 30 368 558 0 369 366 370 0 +0 -.0012
 -3e-4 -1 0 0 16 369 374 0 ?169 371 367 368 0 0 1 30 370 557 0 371 368 372 0 +89
5e-6 323453648124842e-33 -3e-4 361400724161835e-30 -1 0 16 371 370 0 ?166 373 36
9 370 0 0 1 30 372 556 0 373 370 374 0 +0 0 -3e-4 1 0 0 16 373 429 0 ?375 376 37
1 372 0 0 1 30 374 555 0 342 372 377 0 +.001645 -594504191246218e-33 3e-4 -36140
0724161835e-30 -1 0 16 342 410 0 ?378 379 340 374 0 0 1 30 377 554 0 379 374 380
 0 +0 -.0012 3e-4 1 0 0 16 379 406 0 ?381 382 342 377 0 0 1 30 380 553 0 382 377
 383 0 +.00177 -3838075690598685e-34 3e-4 -216840434497101e-30 -1 0 16 382 402 0
 ?384 385 379 380 0 0 1 30 383 552 0 385 380 386 0 +0 -.0022 3e-4 -1 0 0 16 385
 398 0 ?387 388 382 383 0 0 1 30 386 551 0 388 383 389 0 +.001645 -2378016764984
87e-33 3e-4 -144560289664734e-30 -1 0 16 388 394 0 ?390 391 385 386 0 0 1 30 389
 550 0 391 386 392 0 +0 -.0052 3e-4 -1 0 0 16 391 390 0 ?393 394 388 389 0 0 1 3
0 392 549 0 394 389 395 0 +895e-6 1293814592499368e-34 3e-4 144560289664734e-30
 -1 0 16 394 426 0 ?148 396 391 392 0 0 1 30 395 548 0 396 392 397 0 +0 -.0022 3
e-4 1 0 0 16 396 423 0 ?145 398 394 395 0 0 1 30 397 547 0 398 395 399 0 +77e-5
 1669671345627675e-34 3e-4 216840434497101e-30 -1 0 16 398 420 0 ?142 400 396 39
7 0 0 1 30 399 546 0 400 397 401 0 +0 -.0012 3e-4 -1 0 0 16 400 417 0 ?139 402 3
98 399 0 0 1 30 401 545 0 402 399 403 0 +895e-6 323453648124842e-33 3e-4 3614007
24161835e-30 -1 0 16 402 414 0 ?135 347 400 401 0 0 1 30 403 544 0 347 401 404 0
 +0 0 3e-4 1 0 0 16 347 366 0 ?44 343 402 403 0 0 1 30 404 319 0 405 403 406 0 +
0 0 3e-4 1 0 0 16 405 106 0 ?53 407 408 404 0 0 1 30 406 318 0 407 404 409 0 +-3
75e-6 -135525271560688e-33 3e-4 361400724161835e-30 -1 0 16 407 154 0 ?132 410 4
05 406 0 0 1 30 409 317 0 410 406 411 0 +0 -.0012 3e-4 -1 0 0 16 410 157 0 ?130
 412 407 409 0 0 1 30 411 316 0 412 409 413 0 +-5e-4 -1084202172485506e-34 3e-4
 216840434497101e-30 -1 0 16 412 160 0 ?127 414 410 411 0 0 1 30 413 315 0 414 4
11 415 0 +0 -.0022 3e-4 1 0 0 16 414 163 0 ?124 416 412 413 0 0 1 30 415 314 0 4
16 413 417 0 +-375e-6 -542101086242752e-34 3e-4 144560289664734e-30 -1 0 16 416
 166 0 ?121 418 414 415 0 0 1 30 417 313 0 418 415 419 0 +0 -.0052 3e-4 1 0 0 16
 418 169 0 ?118 420 416 417 0 0 1 30 419 312 0 420 417 421 0 +375e-6 -5421010862
42752e-34 3e-4 -144560289664734e-30 -1 0 16 420 134 0 ?422 423 418 419 0 0 1 30
 421 311 0 423 419 424 0 +0 -.0022 3e-4 -1 0 0 16 423 138 0 ?425 426 420 421 0 0
 1 30 424 310 0 426 421 427 0 +5e-4 -1084202172485506e-34 3e-4 -216840434497101e
-30 -1 0 16 426 142 0 ?428 429 423 424 0 0 1 30 427 309 0 429 424 430 0 +0 -.001
2 3e-4 -1 0 0 16 429 172 0 ?106 431 426 427 0 0 1 30 430 308 0 431 427 432 0 +37
5e-6 -135525271560688e-33 3e-4 -361400724161835e-30 -1 0 16 431 150 0 ?433 434 4
29 430 0 0 1 30 432 307 0 376 430 435 0 +0 0 -3e-4 1 0 0 16 376 175 0 ?436 437 3
73 432 0 0 1 30 435 306 0 437 432 438 0 +-375e-6 -135525271560688e-33 -3e-4 3614
00724161835e-30 -1 0 16 437 110 0 ?103 439 376 435 0 0 1 30 438 305 0 439 435 44
0 0 +0 -.0012 -3e-4 -1 0 0 16 439 114 0 ?100 441 437 438 0 0 1 30 440 304 0 441
 438 442 0 +-5e-4 -1084202172485506e-34 -3e-4 216840434497101e-30 -1 0 16 441 11
8 0 ?97 443 439 440 0 0 1 30 442 303 0 443 440 444 0 +0 -.0022 -3e-4 1 0 0 16 44
3 122 0 ?94 445 441 442 0 0 1 30 444 302 0 445 442 446 0 +-375e-6 -5421010862427
52e-34 -3e-4 144560289664734e-30 -1 0 16 445 126 0 ?91 447 443 444 0 0 1 30 446
 301 0 447 444 448 0 +0 -.0052 -3e-4 1 0 0 16 447 130 0 ?449 450 445 446 0 0 1 3
0 448 300 0 450 446 451 0 +375e-6 -542101086242752e-34 -3e-4 -144560289664734e-3
0 -1 0 16 450 187 0 ?452 453 447 448 0 0 1 30 451 299 0 453 448 454 0 +0 -.0022
 -3e-4 -1 0 0 16 453 184 0 ?455 456 450 451 0 0 1 30 454 298 0 456 451 457 0 +5e
-4 -1084202172485506e-34 -3e-4 -216840434497101e-30 -1 0 16 456 181 0 ?458 459 4
53 454 0 0 1 30 457 297 0 459 454 460 0 +0 -.0012 -3e-4 -1 0 0 16 459 146 0 ?461
 408 456 457 0 0 1 30 460 296 0 408 457 462 0 +375e-6 -135525271560688e-33 -3e-4
 -361400724161835e-30 -1 0 16 408 178 0 ?463 405 459 460 0 0 1 30 462 295 0 434
 460 464 0 +375e-6 2407412430484045e-50 3e-4 0 0 -1 16 434 109 0 ?72 465 431 462
 0 0 1 30 464 294 0 465 462 466 0 +375e-6 -.0012 3e-4 0 0 -1 16 465 153 0 ?76 46
7 434 464 0 0 1 30 466 293 0 467 464 468 0 +5e-4 -.0012 3e-4 0 0 -1 16 467 149 0
 ?79 469 465 466 0 0 1 30 468 292 0 469 466 470 0 +5e-4 -.0022 3e-4 0 0 -1 16 46
9 145 0 ?82 471 467 468 0 0 1 30 470 291 0 471 468 472 0 +375e-6 -.0022 3e-4 0 0
 -1 16 471 141 0 ?85 473 469 470 0 0 1 30 472 290 0 473 470 474 0 +375e-6 -.0052
 3e-4 0 0 -1 16 473 137 0 ?88 475 471 472 0 0 1 30 474 289 0 475 472 476 0 +-375
e-6 -.0052 3e-4 0 0 -1 16 475 133 0 ?477 478 473 474 0 0 1 30 476 288 0 478 474
 479 0 +-375e-6 -.0022 3e-4 0 0 -1 16 478 129 0 ?480 481 475 476 0 0 1 30 479 28
7 0 481 476 482 0 +-5e-4 -.0022 3e-4 0 0 -1 16 481 125 0 ?483 484 478 479 0 0 1
 30 482 286 0 484 479 485 0 +-5e-4 -.0012 3e-4 0 0 -1 16 484 121 0 ?486 487 481
 482 0 0 1 30 485 285 0 487 482 488 0 +-375e-6 -.0012 3e-4 0 0 -1 16 487 117 0 ?
489 490 484 485 0 0 1 30 488 284 0 490 485 491 0 +-375e-6 2407412430484045e-50 3
e-4 0 0 -1 16 490 113 0 ?492 493 487 488 0 0 1 31 255 491 7 0 494 488 495 0 +0 .
0045 0 0 1 0 0 0 1 .00255 16 494 5 0 ?496 497 498 491 0 0 1 30 495 11 0 497 491
 499 0 +-.00202484567313166 .0045 .00155 1 0 0 16 497 9 0 ?67 23 494 495 0 0 1 3
1 499 44 0 493 495 500 0 +0 0 0 0 1 0 0 0 1 .00255 16 493 36 0 ?501 498 490 499
 0 0 1 30 500 43 0 498 499 19 0 +-.00202484567313166 0 .00155 1 0 0 16 498 32 0
 ?60 494 493 500 0 0 1 30 19 55 0 23 500 7 0 +.00202484567313166 .0045 .00155 0
 -1 0 16 23 47 0 ?502 10 497 19 0 0 1 17 502 0 503 501 504 58 505 23 0 506 +15 5
03 51 0 501 16 0 17 501 0 503 507 502 62 506 493 0 0 +17 504 0 503 502 507 57 49
6 494 0 0 -17 505 0 508 69 60 57 502 23 0 504 -17 506 0 509 64 64 58 501 493 0 0
 -15 509 31 0 506 510 0 17 64 0 509 506 506 62 60 498 0 22 -17 60 0 508 505 22 5
8 64 498 0 502 +17 22 0 508 60 69 62 507 10 0 501 +15 508 49 0 60 511 0 17 69 0
 508 22 505 61 67 497 0 496 -17 507 0 503 504 501 61 22 10 0 0 -17 67 0 512 496
 496 57 69 497 0 505 +17 496 0 512 67 67 61 504 494 0 507 +15 512 4 0 496 513 0
 14 255 513 1 514 ?510 511 512 5 515 +0 0 510 511 21 81 1 514 1128 516 513 517 0
 0 518 519 14 510 30 518 ?520 513 26 5 521 -0 0 520 513 21 14 511 50 522 ?513 16
 508 5 18 -0 0 513 16 21 50 255 515 3 0 513 523 521 0 +0 .0045 0 0 1 0 0 0 1 13
 21 20 0 0 0 0 0 0 9 16 14 16 52 524 ?511 0 503 5 6 -0 0 511 0 21 81 1 524 1131
 516 16 525 0 522 526 527 80 255 1 516 528 529 9000 1 1 1 1 1 1 1 1 0 FFFFTFTFFF
FFFF1 81 1 525 997 530 16 0 524 0 531 532 81 1 522 1130 516 511 531 0 518 524 53
3 81 1 526 1132 516 520 534 0 524 535 536 82 255 1 527 1272053906 14 520 218 526
 ?537 510 538 5 523 -0 0 537 510 21 81 1 534 1001 530 520 0 526 539 540 541 81 1
 535 1133 516 537 540 0 526 542 543 82 1 536 128385178 14 537 222 535 ?544 520 5
45 5 546 -0 0 544 520 21 81 1 540 1002 530 537 0 535 534 547 548 81 1 542 1134 5
16 544 547 0 535 549 550 82 1 543 128123034 14 544 226 542 ?551 537 552 5 553 -0
 0 551 537 21 81 1 547 1003 530 544 0 542 540 554 555 81 1 549 1135 516 551 554
 0 542 556 557 82 1 550 127860890 14 551 230 549 ?558 544 559 5 560 -0 0 558 544
 21 81 1 554 1004 530 551 0 549 547 561 562 81 1 556 1136 516 558 561 0 549 563
 564 82 1 557 127598746 14 558 234 556 ?565 551 566 5 567 -0 0 565 551 21 81 1 5
61 1005 530 558 0 556 554 568 569 81 1 563 1137 516 565 568 0 556 570 571 82 1 5
64 127336602 14 565 238 563 ?572 558 573 5 574 -0 0 572 558 21 81 1 568 1006 530
 565 0 563 561 575 576 81 1 570 1138 516 572 575 0 563 577 578 82 1 571 12700892
2 14 572 242 570 ?579 565 580 5 581 +0 0 579 565 21 81 1 575 1007 530 572 0 570
 568 582 583 81 1 577 1139 516 579 582 0 570 584 585 82 1 578 126877850 14 579 2
46 577 ?586 572 587 5 588 +0 0 586 572 21 81 1 582 1008 530 579 0 577 575 589 59
0 81 1 584 1140 516 586 589 0 577 591 592 82 1 585 126746778 14 586 250 584 ?593
 579 594 5 595 +0 0 593 579 21 81 1 589 1009 530 586 0 584 582 596 597 81 1 591
 1141 516 593 596 0 584 598 599 82 1 592 126550170 14 593 254 591 ?600 586 601 5
 602 -0 0 600 586 21 81 1 596 1010 530 593 0 591 589 603 604 81 1 598 1142 516 6
00 603 0 591 605 606 82 1 599 126222490 14 600 258 598 ?607 593 608 5 609 +0 0 6
07 593 21 81 1 603 1011 530 600 0 598 596 610 611 81 1 605 1143 516 607 610 0 59
8 612 613 82 1 606 126091418 14 607 262 605 ?614 600 615 5 616 +0 0 614 600 21 8
1 1 610 1012 530 607 0 605 603 617 618 81 1 612 1144 516 614 617 0 605 619 620 8
2 1 613 106823834 14 614 265 612 ?621 607 622 5 623 -0 0 621 607 21 81 1 617 101
3 530 614 0 612 610 624 625 81 1 619 1145 516 621 624 0 612 626 627 82 1 620 123
601050 14 621 478 619 ?628 614 629 5 630 -0 0 628 614 21 81 1 624 1014 530 621 0
 619 617 631 632 81 1 626 1146 516 628 631 0 619 633 634 82 1 627 160759962 14 6
28 482 626 ?635 621 636 5 637 -0 0 635 621 21 81 1 631 1015 530 628 0 626 624 63
8 639 81 1 633 1147 516 635 638 0 626 640 641 82 1 634 160497818 14 635 486 633
 ?642 628 643 5 644 -0 0 642 628 21 81 1 638 1016 530 635 0 633 631 645 646 81 1
 640 1148 516 642 645 0 633 647 648 82 1 641 160235674 14 642 490 640 ?649 635 6
50 5 651 -0 0 649 635 21 81 1 645 1017 530 642 0 640 638 652 653 81 1 647 1149 5
16 649 652 0 640 654 655 82 1 648 159973530 14 649 494 647 ?656 642 657 5 658 -0
 0 656 642 21 81 1 652 1018 530 649 0 647 645 659 660 81 1 654 1150 516 656 659
 0 647 661 662 82 1 655 159645850 14 656 498 654 ?663 649 664 5 665 +0 0 663 649
 21 81 1 659 1019 530 656 0 654 652 666 667 81 1 661 1151 516 663 666 0 654 668
 669 82 1 662 159514778 14 663 502 661 ?670 656 671 5 672 +0 0 670 656 21 81 1 6
66 1020 530 663 0 661 659 673 674 81 1 668 1152 516 670 673 0 661 675 676 82 1 6
69 159383706 14 670 506 668 ?677 663 678 5 679 +0 0 677 663 21 81 1 673 1021 530
 670 0 668 666 680 681 81 1 675 1153 516 677 680 0 668 682 683 82 1 676 15925263
4 14 677 510 675 ?684 670 685 5 686 +0 0 684 670 21 81 1 680 1022 530 677 0 675
 673 687 688 81 1 682 1154 516 684 687 0 675 689 690 82 1 683 159121562 14 684 5
14 682 ?691 677 692 5 693 +0 0 691 677 21 81 1 687 1023 530 684 0 682 680 694 69
5 81 1 689 1155 516 691 694 0 682 696 697 82 1 690 158990490 14 691 518 689 ?698
 684 699 5 700 +0 0 698 684 21 81 1 694 1024 530 691 0 689 687 701 702 81 1 696
 1156 516 698 701 0 689 703 704 82 1 697 158859418 14 698 522 696 ?705 691 706 5
 707 +0 0 705 691 21 81 1 701 1025 530 698 0 696 694 708 709 81 1 703 1157 516 7
05 708 0 696 710 711 82 1 704 139591834 14 705 525 703 ?272 698 712 5 713 -0 0 2
72 698 21 81 1 708 1026 530 705 0 703 701 714 715 81 1 710 1158 516 272 714 0 70
3 716 717 82 1 711 156369050 14 272 734 710 ?718 705 270 5 719 -0 0 718 705 21 8
1 1 714 1027 530 272 0 710 708 720 721 81 1 716 1159 516 718 720 0 710 722 723 8
2 1 717 190840986 14 718 738 716 ?724 272 725 5 726 -0 0 724 272 21 81 1 720 102
8 530 718 0 716 714 727 728 81 1 722 1160 516 724 727 0 716 729 730 82 1 723 190
578842 14 724 742 722 ?731 718 732 5 733 -0 0 731 718 21 81 1 727 1029 530 724 0
 722 720 734 735 81 1 729 1161 516 731 734 0 722 736 737 82 1 730 190316698 14 7
31 746 729 ?738 724 739 5 740 -0 0 738 724 21 81 1 734 1030 530 731 0 729 727 74
1 742 81 1 736 1162 516 738 741 0 729 743 744 82 1 737 190054554 14 738 750 736
 ?745 731 746 5 747 -0 0 745 731 21 81 1 741 1031 530 738 0 736 734 748 749 81 1
 743 1163 516 745 748 0 736 750 751 82 1 744 189726874 14 745 754 743 ?752 738 7
53 5 754 +0 0 752 738 21 81 1 748 1032 530 745 0 743 741 755 756 81 1 750 1164 5
16 752 755 0 743 757 758 82 1 751 189595802 14 752 758 750 ?759 745 760 5 761 +0
 0 759 745 21 81 1 755 1033 530 752 0 750 748 762 763 81 1 757 1165 516 759 762
 0 750 764 765 82 1 758 189464730 14 759 762 757 ?766 752 767 5 768 +0 0 766 752
 21 81 1 762 1034 530 759 0 757 755 769 770 81 1 764 1166 516 766 769 0 757 771
 772 82 1 765 189333658 14 766 766 764 ?773 759 774 5 775 +0 0 773 759 21 81 1 7
69 1035 530 766 0 764 762 776 777 81 1 771 1167 516 773 776 0 764 778 779 82 1 7
72 189202586 14 773 770 771 ?261 766 780 5 781 +0 0 261 766 21 81 1 776 1036 530
 773 0 771 769 782 783 81 1 778 1168 516 261 782 0 771 784 785 82 1 779 18907151
4 14 261 778 778 ?786 773 256 5 787 -0 0 786 773 21 81 1 782 1037 530 261 0 778
 776 788 789 81 1 784 1169 516 786 788 0 778 790 791 82 1 785 188612762 14 786 7
82 784 ?278 261 792 5 793 +0 0 278 261 21 81 1 788 1038 530 786 0 784 782 794 79
5 81 1 790 1170 516 278 794 0 784 0 796 82 1 791 171049114 14 278 785 790 ?0 786
 264 5 797 -0 0 0 786 21 81 1 794 1039 530 278 0 790 788 0 798 82 1 796 18612239
4 80 1 530 0 799 8001 0 0 0 0 3 5 0 0 0 FFFFTFTFFFFFFF2 83 255 3 798 1 .96078431
372549 .890196078431373 79 255 15 799 SDL/TYSA_COLOUR50 797 791 0 278 787 793 0
 +0 0 -3e-4 0 0 1 1 0 0 50 787 792 0 261 781 797 0 +-.001645 0 3e-4 1 3614007241
61835e-30 0 -361400724161835e-30 1 0 50 793 790 0 786 797 630 0 +0 0 3e-4 0 0 1
 1 0 0 50 630 542 0 621 793 637 0 +895e-6 323453648124842e-33 3e-4 1 36140072416
1835e-30 0 -361400724161835e-30 1 0 50 637 541 0 628 630 644 0 +0 -.0012 3e-4 0
 -1 0 0 0 -1 50 644 540 0 635 637 651 0 +77e-5 1669671345627675e-34 3e-4 1 21684
0434497101e-30 0 -216840434497101e-30 1 0 50 651 539 0 642 644 658 0 +0 -.0022 3
e-4 0 1 0 0 0 1 50 658 538 0 649 651 665 0 +895e-6 1293814592499368e-34 3e-4 1 1
44560289664734e-30 0 -144560289664734e-30 1 0 50 665 537 0 656 658 672 0 +0 -.00
52 3e-4 0 -1 0 0 0 -1 50 672 536 0 663 665 679 0 +.001645 -237801676498487e-33 3
e-4 1 -144560289664734e-30 0 144560289664734e-30 1 0 50 679 535 0 670 672 686 0
 +0 -.0022 3e-4 0 -1 0 0 0 -1 50 686 534 0 677 679 693 0 +.00177 -38380756905986
85e-34 3e-4 1 -216840434497101e-30 0 216840434497101e-30 1 0 50 693 533 0 684 68
6 700 0 +0 -.0012 3e-4 0 1 0 0 0 1 50 700 532 0 691 693 713 0 +.001645 -59450419
1246218e-33 3e-4 1 -361400724161835e-30 0 361400724161835e-30 1 0 50 713 531 0 7
05 700 707 0 +0 0 -3e-4 0 0 1 1 0 0 50 707 530 0 698 713 616 0 +0 0 3e-4 0 0 1 1
 0 0 50 616 283 0 607 707 623 0 +0 0 3e-4 0 0 1 1 0 0 50 623 282 0 614 616 609 0
 +0 0 -3e-4 0 0 1 1 0 0 50 609 281 0 600 623 602 0 +375e-6 -135525271560688e-33
 3e-4 1 -361400724161835e-30 0 361400724161835e-30 1 0 50 602 280 0 593 609 595
 0 +0 -.0012 3e-4 0 -1 0 0 0 -1 50 595 279 0 586 602 588 0 +5e-4 -10842021724855
06e-34 3e-4 1 -216840434497101e-30 0 216840434497101e-30 1 0 50 588 278 0 579 59
5 581 0 +0 -.0022 3e-4 0 -1 0 0 0 -1 50 581 277 0 572 588 574 0 +375e-6 -5421010
86242752e-34 3e-4 1 -144560289664734e-30 0 144560289664734e-30 1 0 50 574 276 0
 565 581 567 0 +0 -.0052 3e-4 0 1 0 0 0 1 50 567 275 0 558 574 560 0 +-375e-6 -5
42101086242752e-34 3e-4 1 144560289664734e-30 0 -144560289664734e-30 1 0 50 560
 274 0 551 567 553 0 +0 -.0022 3e-4 0 1 0 0 0 1 50 553 273 0 544 560 546 0 +-5e-
4 -1084202172485506e-34 3e-4 1 216840434497101e-30 0 -216840434497101e-30 1 0 50
 546 272 0 537 553 523 0 +0 -.0012 3e-4 0 -1 0 0 0 -1 50 523 271 0 520 546 515 0
 +-375e-6 -135525271560688e-33 3e-4 1 361400724161835e-30 0 -361400724161835e-30
 1 0 50 781 794 0 773 775 787 0 +-895e-6 0 3e-4 1 -361400724161835e-30 0 3614007
24161835e-30 1 0 50 775 795 0 766 768 781 0 +-895e-6 -.0012 3e-4 0 1 0 0 0 1 50
 768 796 0 759 761 775 0 +-77e-5 -.0012 3e-4 1 -216840434497101e-30 0 2168404344
97101e-30 1 0 50 761 797 0 752 754 768 0 +-77e-5 -.0022 3e-4 0 -1 0 0 0 -1 50 75
4 798 0 745 747 761 0 +-895e-6 -.0022 3e-4 1 -144560289664734e-30 0 144560289664
734e-30 1 0 50 747 799 0 738 740 754 0 +-.001645 -.0052 3e-4 0 1 0 0 0 1 50 740
 800 0 731 733 747 0 +-.001645 -.0022 3e-4 1 144560289664734e-30 0 -144560289664
734e-30 1 0 50 733 801 0 724 726 740 0 +-.00177 -.0022 3e-4 0 1 0 0 0 1 50 726 8
02 0 718 719 733 0 +-.00177 -.0012 3e-4 1 216840434497101e-30 0 -216840434497101
e-30 1 0 50 719 803 0 272 0 726 0 +-.001645 -.0012 3e-4 0 -1 0 0 0 -1 83 3 795 1
 .96078431372549 .890196078431373 15 792 784 0 275 786 0 17 275 0 792 202 226 19
6 263 268 0 273 +17 202 0 792 205 275 200 198 314 0 800 +17 226 0 792 275 29 224
 36 276 0 257 +17 273 0 270 263 271 196 281 801 0 0 -17 281 0 725 231 198 164 27
3 801 0 271 +16 801 633 0 ?281 802 0 803 0 0 1 16 802 637 0 ?804 805 801 806 0 0
 1 30 803 839 0 801 0 806 0 +-.00177 -.0012 3e-4 0 0 -1 30 806 838 0 802 803 807
 0 +-.00177 -.0022 3e-4 0 0 -1 30 807 837 0 805 806 808 0 +-.001645 -.0022 3e-4
 0 0 -1 16 805 641 0 ?809 810 802 807 0 0 1 30 808 836 0 810 807 811 0 +-.001645
 -.0052 3e-4 0 0 -1 16 810 645 0 ?812 813 805 808 0 0 1 30 811 835 0 813 808 814
 0 +-895e-6 -.0052 3e-4 0 0 -1 16 813 649 0 ?240 815 810 811 0 0 1 30 814 834 0
 815 811 816 0 +-895e-6 -.0022 3e-4 0 0 -1 16 815 653 0 ?243 817 813 814 0 0 1 3
0 816 833 0 817 814 818 0 +-77e-5 -.0022 3e-4 0 0 -1 16 817 657 0 ?246 819 815 8
16 0 0 1 30 818 832 0 819 816 820 0 +-77e-5 -.0012 3e-4 0 0 -1 16 819 661 0 ?249
 821 817 818 0 0 1 30 820 831 0 821 818 822 0 +-895e-6 -.0012 3e-4 0 0 -1 16 821
 665 0 ?252 823 819 820 0 0 1 30 822 830 0 823 820 824 0 +-895e-6 0 3e-4 0 0 -1
 16 823 669 0 ?27 35 821 822 0 0 1 30 824 829 0 35 822 277 0 +-.001645 0 3e-4 0
 0 -1 16 35 673 0 ?34 262 823 824 0 0 1 30 277 828 0 262 824 269 0 +-.001645 -.0
012 3e-4 0 0 -1 30 269 827 0 259 277 825 0 +-.001645 0 -3e-4 361400724161835e-30
 -1 0 30 825 826 0 267 269 826 0 +-.001645 0 -3e-4 1 0 0 16 267 692 0 ?265 827 2
59 825 0 0 1 30 826 825 0 827 825 828 0 +-895e-6 0 -3e-4 -361400724161835e-30 -1
 0 16 827 695 0 ?829 830 267 826 0 0 1 30 828 824 0 830 826 831 0 +-895e-6 -.001
2 -3e-4 1 0 0 16 830 698 0 ?832 833 827 828 0 0 1 30 831 823 0 833 828 834 0 +-7
7e-5 -.0012 -3e-4 -216840434497101e-30 -1 0 16 833 701 0 ?835 836 830 831 0 0 1
 30 834 822 0 836 831 837 0 +-77e-5 -.0022 -3e-4 -1 0 0 16 836 704 0 ?838 839 83
3 834 0 0 1 30 837 821 0 839 834 840 0 +-895e-6 -.0022 -3e-4 -144560289664734e-3
0 -1 0 16 839 707 0 ?841 842 836 837 0 0 1 30 840 820 0 842 837 843 0 +-.001645
 -.0052 -3e-4 1 0 0 16 842 642 0 ?844 845 839 840 0 0 1 30 843 819 0 845 840 290
 0 +-.001645 -.0022 -3e-4 144560289664734e-30 -1 0 16 845 638 0 ?237 287 842 843
 0 0 1 30 290 818 0 287 843 288 0 +-.00177 -.0022 -3e-4 1 0 0 16 287 634 0 ?234
 280 845 290 0 0 1 17 234 0 732 846 804 232 279 287 0 809 +15 732 745 0 234 724
 0 17 846 0 732 847 234 203 809 805 0 848 -17 804 0 732 234 847 229 800 802 0 27
9 +17 279 0 264 228 849 229 234 287 0 0 -17 809 0 739 237 848 232 846 805 0 849
 +15 739 749 0 237 731 0 17 237 0 739 850 809 235 849 845 0 812 +17 848 0 739 80
9 850 203 208 310 0 0 -17 849 0 264 279 851 232 237 845 0 0 -17 851 0 264 849 84
1 235 844 842 0 0 -17 841 0 264 851 838 238 852 839 0 0 +17 844 0 746 853 812 23
8 851 842 0 841 +15 746 753 0 844 738 0 17 853 0 746 854 844 209 240 813 0 307 -
17 812 0 746 844 854 235 850 810 0 851 +17 854 0 746 812 853 206 211 308 0 0 -17
 850 0 739 848 237 206 812 810 0 854 -17 211 0 792 855 208 209 854 308 0 853 +17
 855 0 792 856 211 212 307 305 0 304 -17 208 0 792 211 205 206 848 310 0 850 +17
 205 0 792 208 202 203 847 312 0 846 +17 847 0 732 804 846 200 205 312 0 0 -17 8
56 0 792 857 855 215 304 302 0 301 -17 307 0 753 240 214 209 855 305 0 0 +17 304
 0 760 243 217 212 856 302 0 0 +15 760 761 0 858 752 0 17 243 0 760 858 304 241
 214 815 0 852 +17 217 0 760 304 858 215 246 817 0 856 -17 858 0 760 217 243 244
 838 836 0 835 -17 246 0 767 859 301 244 217 817 0 858 +15 767 765 0 859 759 0 1
7 859 0 767 220 246 247 835 833 0 832 -17 301 0 767 246 220 215 857 299 0 0 +17
 220 0 767 301 859 218 249 819 0 857 -17 857 0 792 860 856 218 301 299 0 298 -17
 860 0 792 861 857 221 298 296 0 295 -17 298 0 774 249 223 218 860 296 0 0 +15 7
74 769 0 862 766 0 17 249 0 774 862 298 247 220 819 0 859 +17 223 0 774 298 862
 221 252 821 0 860 -17 862 0 774 223 249 250 832 830 0 829 -17 252 0 780 863 295
 250 223 821 0 862 +15 780 773 0 863 773 0 17 863 0 780 31 252 253 829 827 0 265
 -17 295 0 780 252 31 221 861 293 0 0 +17 31 0 780 295 863 11 27 823 0 861 -17 8
61 0 792 29 860 11 295 293 0 0 -17 29 0 792 226 861 25 24 30 0 0 -17 27 0 26 33
 24 253 31 823 0 863 +15 26 606 0 28 510 864 17 33 0 26 28 27 32 265 267 0 34 -1
7 265 0 264 829 258 253 33 267 0 0 +17 829 0 264 832 265 250 863 827 0 0 +17 832
 0 264 835 829 247 862 830 0 0 +17 835 0 264 838 832 244 859 833 0 0 +17 838 0 2
64 841 835 241 858 836 0 0 +15 864 346 0 41 510 865 17 41 0 864 44 47 37 284 282
 0 866 -15 865 86 0 50 510 509 17 50 0 865 53 56 48 492 490 0 867 -17 53 0 865 7
2 50 51 868 405 0 869 +17 56 0 865 50 72 54 436 376 0 492 -17 492 0 538 103 867
 54 50 490 0 870 +17 867 0 538 492 871 48 132 407 0 868 -15 538 221 0 103 520 0
 17 871 0 538 867 103 73 489 487 0 872 -17 132 0 615 130 868 73 867 407 0 871 +1
7 868 0 615 132 873 48 53 405 0 0 -15 615 264 0 868 607 0 17 873 0 615 868 106 5
1 433 431 0 0 -17 106 0 615 873 874 65 875 429 0 876 +17 433 0 608 76 869 65 873
 431 0 0 +15 608 261 0 877 600 0 17 76 0 608 877 433 74 876 465 0 461 +17 869 0
 608 433 877 51 72 434 0 873 -17 877 0 608 869 76 70 463 408 0 0 -17 72 0 865 56
 53 70 869 434 0 436 +17 436 0 622 463 870 70 56 376 0 877 +15 622 267 0 436 614
 0 17 463 0 622 878 436 74 877 408 0 0 +17 870 0 622 436 879 54 103 437 0 0 -17
 879 0 622 870 880 101 100 439 0 0 -17 103 0 538 871 492 101 870 437 0 489 +17 4
89 0 545 100 872 101 871 487 0 879 +15 545 225 0 100 537 0 17 100 0 545 881 489
 98 879 439 0 486 +17 872 0 545 489 881 73 130 410 0 0 -17 881 0 545 872 100 128
 486 484 0 882 -17 130 0 615 127 132 128 872 410 0 881 +17 127 0 615 124 130 125
 882 412 0 883 +17 124 0 615 121 127 122 884 414 0 885 +17 882 0 552 486 883 128
 127 412 0 0 -17 883 0 552 882 97 125 483 481 0 884 -15 552 229 0 97 544 0 17 97
 0 552 883 486 95 880 441 0 483 +17 483 0 559 94 884 95 883 481 0 886 +17 884 0
 559 483 885 125 124 414 0 0 -15 559 233 0 94 551 0 17 885 0 559 884 94 122 480
 478 0 887 -17 94 0 559 885 483 92 886 443 0 480 +17 480 0 566 91 887 92 885 478
 0 888 +17 887 0 566 480 889 122 121 416 0 0 -15 566 237 0 91 558 0 17 889 0 566
 887 91 119 477 475 0 890 -17 121 0 615 118 124 119 887 416 0 889 +17 118 0 615
 891 121 116 890 418 0 892 +17 891 0 615 893 118 113 422 420 0 425 -17 890 0 573
 477 892 119 118 418 0 0 -17 892 0 573 890 449 116 88 473 0 422 -15 573 241 0 44
9 565 0 17 449 0 573 892 477 86 894 447 0 452 +17 88 0 580 895 422 86 892 473 0
 449 +17 422 0 580 88 115 116 891 420 0 0 +15 580 245 0 895 572 0 17 115 0 580 4
22 895 113 85 471 0 891 -17 895 0 580 115 88 83 452 450 0 455 -17 85 0 587 896 4
25 83 115 471 0 895 +15 587 249 0 896 579 0 17 896 0 587 112 85 80 455 453 0 458
 -17 425 0 587 85 112 113 893 423 0 0 +17 112 0 587 425 896 110 82 469 0 893 -17
 893 0 615 874 891 110 425 423 0 428 -17 874 0 615 106 893 107 428 426 0 0 -17 4
28 0 594 82 109 110 874 426 0 0 +15 594 253 0 897 586 0 17 82 0 594 897 428 80 1
12 469 0 896 +17 109 0 594 428 897 107 79 467 0 875 -17 897 0 594 109 82 77 458
 456 0 0 -17 79 0 601 461 875 77 109 467 0 878 +17 875 0 601 79 876 107 106 429
 0 874 -15 601 257 0 461 593 0 17 876 0 601 875 461 65 76 465 0 433 -17 461 0 60
1 876 79 74 878 459 0 463 +17 878 0 622 458 463 77 461 459 0 897 -17 458 0 622 4
55 878 80 897 456 0 0 +17 455 0 622 452 458 83 896 453 0 0 +17 452 0 622 894 455
 86 895 450 0 0 +17 894 0 622 888 452 89 449 447 0 0 -17 888 0 622 886 894 92 91
 445 0 0 -17 886 0 622 880 888 95 94 443 0 0 -17 91 0 566 889 480 89 888 445 0 4
77 +17 477 0 573 449 890 89 889 475 0 894 +17 880 0 622 879 886 98 97 441 0 0 -1
7 486 0 552 97 882 98 881 484 0 880 +17 44 0 864 195 41 42 898 347 0 899 +17 47
 0 864 41 195 45 375 373 0 284 -17 284 0 629 166 866 45 41 282 0 900 +17 866 0 6
29 284 901 37 135 402 0 898 -15 629 481 0 166 621 0 17 901 0 629 866 166 133 318
 285 0 902 -17 135 0 706 139 898 133 866 402 0 901 +17 898 0 706 135 903 37 44 3
47 0 0 -15 706 524 0 898 698 0 17 903 0 706 898 904 42 378 342 0 0 -17 904 0 706
 903 905 161 381 379 0 378 -17 378 0 699 193 899 161 903 342 0 0 +15 699 521 0 9
06 691 0 17 193 0 699 906 378 191 163 338 0 907 +17 899 0 699 378 906 42 195 340
 0 903 -17 906 0 699 899 193 136 345 343 0 0 -17 195 0 864 47 44 136 899 340 0 3
75 +17 375 0 712 345 900 136 47 373 0 906 +15 712 527 0 375 705 0 17 345 0 712 3
49 375 191 906 343 0 0 +17 900 0 712 375 908 45 166 371 0 0 -17 908 0 712 900 90
9 104 169 369 0 0 -17 166 0 629 901 284 104 900 371 0 318 +17 318 0 636 169 902
 104 901 285 0 908 +15 636 485 0 169 628 0 17 169 0 636 910 318 167 908 369 0 32
1 +17 902 0 636 318 910 133 139 400 0 0 -17 910 0 636 902 169 137 321 319 0 911
 -17 139 0 706 142 135 137 902 400 0 910 +17 142 0 706 145 139 140 911 398 0 912
 +17 145 0 706 148 142 143 913 396 0 914 +17 911 0 643 321 912 137 142 398 0 0 -
17 912 0 643 911 172 140 324 322 0 913 -15 643 489 0 172 635 0 17 172 0 643 912
 321 170 909 367 0 324 +17 324 0 650 175 913 170 912 322 0 915 +17 913 0 650 324
 914 140 145 396 0 0 -15 650 493 0 175 642 0 17 914 0 650 913 175 143 327 325 0
 916 -17 175 0 650 914 324 173 915 365 0 327 +17 327 0 657 364 916 173 914 325 0
 917 +17 916 0 657 327 918 143 148 394 0 0 -15 657 497 0 364 649 0 17 918 0 657
 916 364 146 178 328 0 393 -17 148 0 706 919 145 146 916 394 0 918 +17 919 0 706
 920 148 149 393 391 0 390 -17 920 0 706 921 919 152 390 388 0 387 -17 393 0 664
 178 151 146 919 391 0 0 +17 390 0 671 181 154 149 920 388 0 0 +15 671 505 0 922
 663 0 17 181 0 671 922 390 179 151 330 0 923 +17 154 0 671 390 922 152 184 332
 0 920 -17 922 0 671 154 181 182 358 356 0 355 -17 184 0 678 924 387 182 154 332
 0 922 +15 678 509 0 924 670 0 17 924 0 678 157 184 185 355 353 0 352 -17 387 0
 678 184 157 152 921 385 0 0 +17 157 0 678 387 924 155 187 334 0 921 -17 921 0 7
06 905 920 155 387 385 0 384 -17 905 0 706 904 921 158 384 382 0 381 -17 384 0 6
85 187 160 155 905 382 0 0 +15 685 513 0 925 677 0 17 187 0 685 925 384 185 157
 334 0 924 +17 160 0 685 384 925 158 190 336 0 905 -17 925 0 685 160 187 188 352
 350 0 349 -17 190 0 692 907 381 188 160 336 0 925 +15 692 517 0 907 684 0 17 90
7 0 692 163 190 191 349 346 0 345 -17 381 0 692 190 163 158 904 379 0 0 +17 163
 0 692 381 907 161 193 338 0 904 -17 349 0 712 352 345 188 907 346 0 0 +17 352 0
 712 355 349 185 925 350 0 0 +17 355 0 712 358 352 182 924 353 0 0 +17 358 0 712
 361 355 179 922 356 0 0 +17 361 0 712 917 358 176 923 359 0 0 +17 917 0 712 915
 361 173 364 362 0 0 -17 923 0 664 151 178 179 361 359 0 358 -15 664 501 0 923 6
56 0 17 151 0 664 393 923 149 181 330 0 919 -17 178 0 664 923 393 176 918 328 0
 364 +17 364 0 657 918 327 176 917 362 0 361 +17 915 0 712 909 917 170 175 365 0
 0 -17 909 0 712 908 915 167 172 367 0 0 -17 321 0 643 172 911 167 910 319 0 909
 +17 214 0 753 307 852 212 243 815 0 855 -17 852 0 753 214 240 241 841 839 0 838
 -15 753 757 0 852 745 0 17 240 0 753 852 307 238 853 813 0 844 +17 800 0 725 19
8 231 200 804 802 0 847 -15 725 741 0 231 718 0 17 198 0 725 281 800 196 202 314
 0 275 -17 231 0 725 800 281 229 228 280 0 804 +17 36 0 256 34 257 25 226 276 0
 29 -83 3 789 1 .96078431372549 .890196078431373 83 3 783 1 .96078431372549 .890
196078431373 83 3 777 1 .96078431372549 .890196078431373 83 3 770 1 .96078431372
549 .890196078431373 83 3 763 1 .96078431372549 .890196078431373 83 3 756 1 .960
78431372549 .890196078431373 83 3 749 1 .96078431372549 .890196078431373 83 3 74
2 1 .96078431372549 .890196078431373 83 3 735 1 .96078431372549 .890196078431373
 83 3 728 1 .96078431372549 .890196078431373 83 3 721 1 .96078431372549 .8901960
78431373 83 3 715 1 .96078431372549 .890196078431373 83 3 709 1 .96078431372549
 .890196078431373 83 3 702 1 .96078431372549 .890196078431373 83 3 695 1 .960784
31372549 .890196078431373 83 3 688 1 .96078431372549 .890196078431373 83 3 681 1
 .96078431372549 .890196078431373 83 3 674 1 .96078431372549 .890196078431373 83
 3 667 1 .96078431372549 .890196078431373 83 3 660 1 .96078431372549 .8901960784
31373 83 3 653 1 .96078431372549 .890196078431373 83 3 646 1 .96078431372549 .89
0196078431373 83 3 639 1 .96078431372549 .890196078431373 83 3 632 1 .9607843137
2549 .890196078431373 83 3 625 1 .96078431372549 .890196078431373 83 3 618 1 .96
078431372549 .890196078431373 83 3 611 1 .96078431372549 .890196078431373 83 3 6
04 1 .96078431372549 .890196078431373 83 3 597 1 .96078431372549 .89019607843137
3 83 3 590 1 .96078431372549 .890196078431373 83 3 583 1 .96078431372549 .890196
078431373 83 3 576 1 .96078431372549 .890196078431373 83 3 569 1 .96078431372549
 .890196078431373 83 3 562 1 .96078431372549 .890196078431373 83 3 555 1 .960784
31372549 .890196078431373 83 3 548 1 .96078431372549 .890196078431373 81 1 539 1
000 530 510 0 518 517 534 926 83 3 541 1 .96078431372549 .890196078431373 81 1 5
18 1129 516 510 539 0 514 522 927 81 1 517 999 530 513 0 514 531 539 928 83 3 92
6 .1019607843137254 .1019607843137254 .1019607843137254 81 1 531 998 530 511 0 5
22 525 517 929 83 3 928 .1019607843137254 .1019607843137254 .1019607843137254 83
 3 929 .1019607843137254 .1019607843137254 .1019607843137254 82 1 927 1271267482
 82 1 533 1271791762 83 3 532 .1019607843137254 .1019607843137254 .1019607843137
254 79 14 529 SWEntUnchanged50 521 42 0 510 515 18 0 +0 0 0 0 1 0 0 0 1 50 18 53
 0 511 521 6 0 +-.00202484567313166 .0045 .00155 0 0 -1 -1 0 0 82 1 519 12679906
74 19 17 58 0 1 0 9 5 S0 74 4 CI16 index_map_offset0 0 1 dCCZ20 15 9 0 0 790 930
 931 932 933 934 13 794 2 0 0 0 0 0 0 0 0 0 0 0 81 2 930 865 935 1 0 931 0 0 0 9
36 81 2 931 906 937 1 930 932 0 0 0 938 81 1 932 947 939 1 931 933 0 0 940 81 2
 933 948 941 1 932 934 0 0 0 0 81 2 934 949 942 1 933 13 0 0 943 0 81 2 13 993 9
44 1 934 2 0 0 0 945 80 2 944 946 947 9000 0 0 0 0 3 5 0 0 0 FFTFFFFFFFFFFF9 1 8
2 1 945 1 79 24 947 BODY_IN_LIGHTWEIGHT_PERM80 2 942 948 949 8004 0 0 0 0 3 5 0
 0 0 FFTFFFFFFFFFFF2 3 83 1 943 78e2 79 16 949 SDL/TYSA_DENSITY80 2 941 950 951
 9000 0 0 0 0 3 5 0 0 0 FFTFFFFFFFFFFF9 1 79 16 951 BODY_RECIPE_200180 1 939 952
 953 9000 1 1 1 1 1 1 1 1 0 FFTFFFFFFFFFFF1 82 1 940 1592210 79 10 953 BODY_MATC
H80 2 937 954 955 9000 0 0 0 0 3 5 0 0 0 FFTFFFFFFFFFFF9 1 82 1 938 95 79 30 955
 LAST_BODY_MODIFYING_FEATURE_ID80 2 935 956 957 9000 0 0 0 0 3 5 0 0 0 FFTFFFFFF
FFFFF9 1 82 1 936 113 79 19 957 ENT_TIME_STAMP_200180 2 12 958 959 9000 0 0 0 0
 3 5 0 0 0 FFTFFFFFFFFFFF9 1 82 1 14 104 79 12 959 ATOM_ID_20011 0 
