**ABCDEFGHIJKLMNOPQRSTUVWXYZabcdefghijklmnopqrstuvwxyz**************************
**PARASOLID !"#$%&'()*+,-./:;<=>?@[\]^_`{|}~0123456789**************************
**PART1;
MC=AMD64;
MC_MODEL=AMD64 Family 21 Model 2 Stepping 0, AuthenticAMD;
MC_ID=unknown;
OS=Windows_NT;
OS_RELEASE=unknown;
FRU=Parasolid Version 31.1, build 290,  3- 9-2020;
APPL=SOLIDWORKS 2020-2020196;
SITE=;
USER=unknown;
FORMAT=text;
GUISE=transmit;
KEY=трансформатор_;
FILE=трансформатор_.x_t;
DATE=Sat Apr  3 16:46:30 2021;
**PART2;
SCH=SCH_3101290_31100;
USFLD_SIZE=0;
**PART3;
**END_OF_HEADER*****************************************************************
T51 : TRANSMIT FILE created by modeller version 310129023 SCH_3101290_31100_1300
6222 0 12 34 CCCCCCI4 mesh1006 0 I8 polyline1008 0 CCCCCCCDI5 owner1040 0 CCCCCC
I13 boundary_mesh1006 0 I17 boundary_polyline1008 0 CCCA16 index_map_offset0 0 1
 dA9 index_map82 0 A17 node_id_index_map82 0 A20 schema_embedding_map82 0 A5 chi
ld12 0 A14 lowest_node_id0 0 1 dA16 mesh_offset_data206 0 Z1 1002 2 3 0 0 0 0 0
 0 1e3 1e-8 0 4 0 1 0 1 1 5 6 7 8 0 0 9 10 11 0 0 0 0 0 0 0 81 255 2 2 976 12 1
 13 0 0 0 0 14 70 11 CI9 list_type0 0 1 uI10 notransmit0 0 1 lCCCDCCDI12 finger_
index0 0 1 dI12 finger_block1012 0 CZ3 0 4 T1 0 0 9 20 1 15 15 13 255 5 99 0 1 0
 16 0 0 17 0 50 255 6 94 0 18 19 0 0 +.0125 .009 .011 -1 0 0 0 0 1 30 255 7 98 0
 10 20 0 0 +.0125 .009 -.011 0 -1 0 29 255 8 453 0 11 21 0 -.0095 .028 .011 19 8
 CCCCCCCA5 owner12 0 Z9 33 0 1 17 0 22 V0 16 255 10 82 0 ?23 0 24 7 0 0 1 18 255
 11 451 0 25 0 26 8 ?1 17 255 25 0 27 28 29 11 30 31 0 32 -18 26 27 0 33 11 34 3
5 ?1 17 33 0 36 37 38 26 39 40 0 41 -18 34 24 0 42 26 43 44 ?1 29 35 29 0 26 44
 45 -.0125 .009 .011 29 44 26 0 34 46 35 -.0125 .009 -.011 29 45 78 0 47 35 48 .
0125 0 -.011 18 47 69 0 49 50 51 45 ?1 29 48 77 0 50 45 52 -.0125 0 -.011 18 50
 68 0 53 54 47 48 ?1 29 52 76 0 54 48 21 -.0125 0 .011 18 54 67 0 38 55 50 52 ?1
 29 21 75 0 55 52 8 .0125 0 .011 18 55 66 0 56 43 54 21 ?1 17 56 0 57 58 39 55 5
9 60 0 61 +18 43 21 0 62 34 55 46 ?1 17 62 0 63 23 64 43 42 65 0 66 -29 46 23 0
 43 67 44 .0125 .009 -.011 29 67 243 0 51 68 46 .0095 .036 .011 18 51 195 0 69 4
7 70 67 ?1 29 68 244 0 70 71 67 -.0095 .036 .011 18 70 194 0 72 51 73 68 ?1 29 7
1 245 0 73 74 68 -.0095 .036 -.011 18 73 193 0 75 70 76 71 ?1 29 74 246 0 76 77
 71 .0095 .036 -.011 18 76 190 0 78 73 79 74 ?1 29 77 667 0 79 80 74 .0125 .009
 .011 18 79 568 0 81 76 82 77 ?1 29 80 668 0 82 83 77 .0095 .028 -.011 18 82 576
 0 84 79 85 80 ?1 29 83 670 0 86 87 80 -.015 .009 -.0175 18 86 573 0 88 89 90 83
 ?1 29 87 671 0 90 91 83 .015 .009 -.0175 18 90 572 0 92 86 93 87 ?1 29 91 672 0
 93 94 87 .015 .009 .0175 18 93 570 0 95 90 96 91 ?1 29 94 673 0 96 97 91 -.015
 .009 .0175 18 96 558 0 98 93 99 94 ?1 29 97 674 0 85 100 94 -.015 .028 -.0175 1
8 85 566 0 101 82 102 97 ?1 29 100 675 0 102 103 97 .015 .028 -.0175 18 102 565
 0 104 85 105 100 ?1 29 103 676 0 105 106 100 .015 .028 .0175 18 105 564 0 107 1
02 89 103 ?1 29 106 677 0 89 108 103 -.015 .028 .0175 18 89 571 0 109 105 86 106
 ?1 29 108 681 0 99 110 106 -.0095 .028 -.011 18 99 577 0 28 96 111 108 ?1 29 11
0 682 0 111 0 108 .0095 .028 .011 18 111 575 0 29 99 0 110 ?1 17 29 0 27 25 84 1
11 112 113 0 30 -15 255 27 588 0 25 114 0 17 84 0 27 29 28 82 115 116 0 112 -17
 112 0 117 118 119 82 29 113 0 120 +16 113 550 0 ?112 116 31 121 0 0 1 17 30 0 1
22 123 124 111 25 31 0 119 +15 122 83 0 124 125 0 17 123 0 122 126 30 51 119 127
 0 128 -17 124 0 122 30 126 11 129 130 0 0 +16 31 546 0 ?30 113 131 132 0 0 1 17
 119 0 117 112 128 111 123 127 0 0 +15 117 200 0 119 133 0 17 128 0 117 119 118
 51 134 135 0 0 -16 127 164 0 ?119 130 136 137 0 0 1 16 130 176 0 ?124 138 127 1
39 0 0 1 16 136 186 0 ?69 127 140 141 0 0 1 30 137 230 0 127 141 139 0 +.0095 .0
36 .011 0 -1 0 30 141 235 0 136 142 137 0 +-.0095 .036 .011 1 0 0 30 139 229 0 1
30 137 143 0 +-.0095 .036 .011 0 -1 0 30 143 228 0 138 139 144 0 +-.0095 .036 -.
011 0 -1 0 16 138 172 0 ?145 146 130 143 0 0 1 30 144 227 0 146 143 147 0 +.0095
 .036 -.011 0 -1 0 16 146 168 0 ?120 148 138 144 0 0 1 30 147 7 0 149 144 150 0
 +.0125 .009 .011 0 0 -1 16 149 5 0 ?151 65 60 147 0 0 1 30 150 11 0 65 147 152
 0 +-.0125 .009 -.011 -1 0 0 16 65 9 0 ?42 153 149 150 0 0 1 30 152 15 0 153 150
 154 0 +-.0125 .009 .011 0 0 1 16 153 13 0 ?155 156 65 152 0 0 1 30 154 19 0 156
 152 157 0 +-.0125 .009 .011 1 0 0 16 156 17 0 ?81 158 153 154 0 0 1 30 157 74 0
 148 154 159 0 +.0125 0 .011 0 0 -1 16 148 62 0 ?160 161 146 157 0 0 1 30 159 73
 0 161 157 162 0 +-.0125 0 -.011 -1 0 0 16 161 58 0 ?53 163 148 159 0 0 1 30 162
 72 0 163 159 164 0 +-.0125 0 .011 0 0 1 16 163 54 0 ?38 60 161 162 0 0 1 30 164
 71 0 60 162 165 0 +-.0125 0 .011 1 0 0 16 60 50 0 ?56 149 163 164 0 0 1 30 165
 95 0 158 164 166 0 +.0125 .009 .011 0 -1 0 16 158 79 0 ?61 40 156 165 0 0 1 30
 166 96 0 40 165 20 0 +-.0125 .009 .011 0 -1 0 16 40 80 0 ?39 24 158 166 0 0 1 3
0 20 97 0 24 166 7 0 +-.0125 .009 -.011 0 -1 0 16 24 81 0 ?167 10 40 20 0 0 1 17
 167 0 36 38 37 50 64 24 0 168 +15 36 85 0 38 169 0 17 38 0 36 33 167 54 168 163
 0 39 +17 37 0 36 167 33 34 155 153 0 0 -17 64 0 63 62 53 34 167 24 0 37 -17 168
 0 170 49 59 50 38 163 0 0 -15 170 49 0 171 172 0 17 49 0 170 171 168 47 53 161
 0 23 -17 59 0 170 168 171 54 56 60 0 0 -17 171 0 170 59 49 55 160 148 0 0 -17 1
60 0 173 66 61 47 171 148 0 0 +15 173 89 0 160 18 0 17 66 0 173 174 160 43 23 10
 0 151 -17 61 0 173 160 174 55 58 158 0 171 +17 174 0 173 61 66 79 151 149 0 58
 -17 58 0 57 41 56 79 61 158 0 0 -15 57 474 0 58 175 0 17 41 0 57 39 58 26 81 15
6 0 155 -17 39 0 57 56 41 54 33 40 0 59 +17 81 0 176 151 155 79 41 156 0 174 +17
 155 0 176 81 42 26 37 153 0 0 +15 176 581 0 42 177 0 17 42 0 176 155 151 34 62
 65 0 64 +17 151 0 176 42 81 43 174 149 0 0 +14 255 177 578 178 ?114 179 180 5 1
81 -0 0 114 179 22 81 1 178 977 182 177 183 0 0 184 185 14 114 585 184 ?186 177
 187 5 188 +0 0 186 177 22 14 179 413 189 ?177 190 191 5 192 +0 0 177 190 22 15
 180 580 0 193 177 176 50 181 630 0 177 188 194 0 +0 .009 0 0 1 0 0 0 1 13 22 34
 0 0 0 0 0 0 9 16 14 16 486 195 ?175 0 63 5 19 -196 196 175 0 22 81 1 195 980 18
2 16 197 0 189 198 199 14 175 475 198 ?18 16 57 5 200 -125 125 18 16 22 15 63 48
5 0 64 16 0 50 19 93 0 196 201 6 0 +-.0125 .009 -.011 0 0 1 1 0 0 14 196 88 202
 ?0 125 203 5 19 -16 16 0 125 22 81 1 202 982 182 196 204 0 198 205 206 14 125 8
4 205 ?196 207 122 5 200 -175 175 196 207 22 15 203 87 0 120 196 0 17 120 0 203
 115 78 82 118 146 0 0 +17 115 0 203 208 120 99 84 116 0 145 +17 78 0 203 120 20
8 76 75 209 0 134 -17 118 0 117 128 112 76 120 146 0 0 -17 208 0 203 78 115 73 1
45 138 0 210 -17 75 0 211 72 134 73 78 209 0 208 +16 209 180 0 ?75 140 135 212 0
 0 1 17 134 0 211 75 69 76 128 135 0 118 +15 211 215 0 134 213 0 17 69 0 211 134
 72 51 126 136 0 123 +16 135 177 0 ?134 209 214 215 0 0 1 16 214 281 0 ?216 135
 217 218 0 0 1 30 215 238 0 135 219 212 0 +.0095 .036 .011 0 0 -1 31 255 219 300
 0 217 218 215 0 +.01025 0 -.007 0 -1 0 0 0 -1 6e-4 30 212 237 0 209 215 142 0 +
-.0095 .036 -.011 -1 0 0 30 142 236 0 140 212 141 0 +-.0095 .036 .011 0 0 1 16 1
40 183 0 ?72 136 209 142 0 0 1 17 72 0 211 69 75 70 210 140 0 129 +17 210 0 220
 145 129 73 72 140 0 0 -17 129 0 220 210 32 70 124 130 0 126 -15 220 208 0 145 2
07 0 17 32 0 220 129 145 11 28 131 0 124 +17 126 0 122 124 123 70 69 136 0 0 -17
 145 0 220 32 210 99 208 138 0 0 +17 28 0 27 84 25 99 32 131 0 115 -16 131 542 0
 ?32 31 0 221 0 0 1 30 221 663 0 131 0 132 0 +-.0095 .028 .011 0 0 1 30 132 662
 0 31 221 121 0 +.0095 .028 .011 1 0 0 30 121 661 0 113 132 222 0 +.0095 .028 .0
11 0 0 -1 30 222 660 0 116 121 223 0 +.0095 .028 -.011 -1 0 0 16 116 554 0 ?115
 224 113 222 0 0 1 30 223 651 0 225 222 226 0 +-.015 .028 .0175 0 0 1 16 225 511
 0 ?227 228 229 223 0 0 1 30 226 650 0 228 223 230 0 +.015 .028 .0175 1 0 0 16 2
28 514 0 ?107 231 225 226 0 0 1 30 230 649 0 231 226 232 0 +.015 .028 .0175 0 0
 -1 16 231 517 0 ?104 233 228 230 0 0 1 30 232 648 0 233 230 234 0 +.015 .028 -.
0175 -1 0 0 16 233 520 0 ?101 235 231 232 0 0 1 30 234 647 0 224 232 236 0 +-.01
5 .009 .0175 0 0 1 16 224 526 0 ?237 238 116 234 0 0 1 30 236 646 0 238 234 239
 0 +.015 .009 .0175 1 0 0 16 238 530 0 ?95 240 224 236 0 0 1 30 239 645 0 240 23
6 241 0 +.015 .009 .0175 0 0 -1 16 240 534 0 ?92 229 238 239 0 0 1 30 241 644 0
 229 239 242 0 +.015 .009 -.0175 -1 0 0 16 229 538 0 ?88 225 240 241 0 0 1 30 24
2 643 0 235 241 243 0 +-.015 .028 -.0175 0 -1 0 16 235 529 0 ?244 245 233 242 0
 0 1 30 243 642 0 245 242 246 0 +.015 .028 -.0175 0 -1 0 16 245 541 0 ?247 248 2
35 243 0 0 1 30 246 641 0 248 243 249 0 +.015 .028 .0175 0 -1 0 16 248 537 0 ?25
0 251 245 246 0 0 1 30 249 640 0 251 246 252 0 +-.015 .028 .0175 0 -1 0 16 251 5
33 0 ?253 254 248 249 0 0 1 31 252 425 0 255 249 256 0 +-.01025 -.003 2602085213
96521e-32 0 -1 0 0 0 -1 6e-4 16 255 405 0 ?257 258 254 252 0 0 1 31 256 424 0 25
4 252 259 0 +-.01025 0 260208521396521e-32 0 -1 0 0 0 -1 6e-4 16 254 402 0 ?260
 255 251 256 0 0 1 31 259 394 0 261 256 262 0 +-.01025 -.003 -.007 0 -1 0 0 0 -1
 6e-4 16 261 374 0 ?263 264 258 259 0 0 1 31 262 393 0 258 259 265 0 +-.01025 0
 -.007 0 -1 0 0 0 -1 6e-4 16 258 371 0 ?266 261 255 262 0 0 1 31 265 363 0 267 2
62 268 0 +-.01025 -.003 .007 0 -1 0 0 0 -1 6e-4 16 267 343 0 ?269 270 264 265 0
 0 1 31 268 362 0 264 265 271 0 +-.01025 0 .007 0 -1 0 0 0 -1 6e-4 16 264 340 0
 ?272 267 261 268 0 0 1 31 271 332 0 273 268 274 0 +.01025 -.003 .007 0 -1 0 0 0
 -1 6e-4 16 273 312 0 ?275 217 270 271 0 0 1 31 274 331 0 270 271 218 0 +.01025
 0 .007 0 -1 0 0 0 -1 6e-4 16 270 309 0 ?276 273 267 274 0 0 1 31 218 301 0 214
 274 219 0 +.01025 -.003 -.007 0 -1 0 0 0 -1 6e-4 17 276 0 277 276 276 0 278 270
 0 0 +15 277 319 0 276 279 0 17 278 0 280 278 278 0 276 270 0 0 -15 280 303 0 27
8 172 281 14 172 48 282 ?283 169 284 5 285 +0 0 283 169 22 15 281 272 0 286 172
 170 17 286 0 281 286 286 0 287 217 0 0 -17 287 0 288 287 287 0 286 217 0 0 +16
 217 278 0 ?287 214 273 219 0 0 1 15 288 288 0 287 283 0 14 283 284 289 ?290 172
 291 5 292 -0 0 290 172 22 81 1 289 985 182 283 293 0 282 294 295 14 290 289 294
 ?279 283 296 5 297 +0 0 279 283 22 15 291 287 0 298 283 288 51 255 292 297 0 28
3 297 299 0 -.01025 -.003 -.007 0 1 0 6e-4 0 0 1 50 297 299 0 290 300 292 0 +.01
025 -.003 -.007 0 -1 0 0 0 -1 50 299 226 0 213 292 301 0 +0 .036 0 0 -1 0 0 0 -1
 14 213 213 302 ?133 303 211 5 299 -0 0 133 303 22 50 301 223 0 207 299 304 0 +-
.0095 .036 .011 1 0 0 0 0 -1 14 207 205 305 ?125 133 220 5 301 -0 0 125 133 22 5
0 304 221 0 133 301 285 0 +.0095 .036 .011 -1 0 0 0 0 1 14 133 197 306 ?207 213
 117 5 304 -0 0 207 213 22 50 285 70 0 172 304 200 0 +0 0 0 0 -1 0 0 0 -1 50 200
 91 0 125 285 201 0 +-.0125 .009 .011 0 0 -1 -1 0 0 50 201 92 0 169 200 19 0 +-.
0125 .009 .011 1 0 0 0 0 -1 14 169 86 307 ?172 18 36 5 201 -0 0 172 18 22 81 1 3
07 990 182 169 308 0 306 309 310 14 18 90 309 ?169 175 173 5 6 -0 0 169 175 22 8
1 1 309 991 182 18 311 0 307 312 313 80 255 1 182 314 315 9000 1 1 1 1 1 1 1 1 0
 FFFFTFTFFFFFFF1 81 1 311 895 316 18 0 309 317 308 318 81 1 312 992 182 190 319
 0 309 320 321 82 255 1 313 1451884730 14 190 408 312 ?179 322 323 5 324 -0 0 17
9 322 22 81 1 319 906 316 190 0 312 325 326 327 81 1 320 993 182 322 325 0 312 3
28 329 82 1 321 602669241 14 322 382 320 ?190 330 331 5 332 +0 0 190 330 22 81 1
 325 905 316 322 0 320 333 319 334 81 1 328 994 182 330 333 0 320 335 336 82 1 3
29 596639929 14 330 377 328 ?322 337 338 5 339 -0 0 322 337 22 81 1 333 904 316
 330 0 328 340 325 341 81 1 335 995 182 337 340 0 328 342 343 82 1 336 598606009
 14 337 351 335 ?330 344 345 5 346 +0 0 330 344 22 81 1 340 903 316 337 0 335 34
7 333 348 81 1 342 996 182 344 347 0 335 349 350 82 1 343 592576697 14 344 346 3
42 ?337 351 352 5 353 -0 0 337 351 22 81 1 347 902 316 344 0 342 354 340 355 81
 1 349 997 182 351 354 0 342 356 357 82 1 350 594542777 14 351 320 349 ?344 279
 358 5 359 +0 0 344 279 22 81 1 354 901 316 351 0 349 360 347 361 81 1 356 998 1
82 279 360 0 349 362 363 82 1 357 588513465 14 279 315 356 ?351 290 364 5 300 -0
 0 351 290 22 81 1 360 900 316 279 0 356 365 354 366 81 1 362 999 182 186 367 0
 356 368 369 82 1 363 590479545 14 186 592 362 ?370 114 371 5 372 -0 0 370 114 2
2 81 1 367 910 316 186 0 362 373 374 375 81 1 368 1000 182 370 374 0 362 376 377
 82 1 369 638648506 14 370 596 368 ?378 186 379 5 380 -0 0 378 186 22 81 1 374 9
11 316 370 0 368 367 381 382 81 1 376 1001 182 378 381 0 368 383 384 82 1 377 63
8386362 14 378 600 376 ?303 370 385 5 386 -0 0 303 370 22 81 1 381 912 316 378 0
 376 374 387 388 81 1 383 1002 182 303 387 0 376 0 389 82 1 384 638124218 14 303
 604 383 ?213 378 390 5 194 -0 0 213 378 22 81 1 387 913 316 303 0 383 381 391 3
92 82 1 389 637862074 80 1 316 0 393 8001 0 0 0 0 3 5 0 0 0 FFFFTFTFFFFFFF2 81 1
 391 914 316 213 0 302 387 394 395 83 255 3 392 .2666666666666665 .2666666666666
665 .2666666666666665 81 1 302 987 182 213 391 0 294 305 396 81 1 394 915 316 13
3 0 306 391 397 398 83 3 395 .843137254901961 .815686274509804 .752941176470588
 81 1 306 989 182 133 394 0 305 307 399 81 1 397 916 316 207 0 305 394 400 401 8
3 3 398 .843137254901961 .815686274509804 .752941176470588 81 1 305 988 182 207
 397 0 302 306 402 81 1 400 917 316 125 0 205 397 204 403 83 3 401 .843137254901
961 .815686274509804 .752941176470588 81 1 205 983 182 125 400 0 202 282 404 81
 1 204 918 316 196 0 202 400 0 405 83 3 403 .843137254901961 .815686274509804 .7
52941176470588 83 3 405 .843137254901961 .815686274509804 .752941176470588 81 1
 282 984 182 172 406 0 205 289 407 82 1 404 1451098298 81 1 406 897 316 172 0 28
2 308 293 408 82 1 407 1450180793 81 1 308 896 316 169 0 307 311 406 409 81 1 29
3 898 316 283 0 289 406 365 410 83 3 408 .843137254901961 .815686274509804 .7529
41176470588 81 1 365 899 316 290 0 294 293 360 411 83 3 410 1 .96078431372549 .8
90196078431373 81 1 294 986 182 290 365 0 289 302 412 83 3 411 1 .96078431372549
 .890196078431373 82 1 412 584384697 83 3 409 .843137254901961 .815686274509804
 .752941176470588 82 1 402 1477836986 82 1 399 1478361274 82 1 396 1471021212 79
 255 15 393 SDL/TYSA_COLOUR15 390 607 0 88 303 0 50 194 629 0 303 181 386 0 +.01
5 .028 -.0175 0 0 1 1 0 0 50 386 628 0 378 194 380 0 +.015 .028 .0175 -1 0 0 0 0
 1 50 380 627 0 370 386 372 0 +.015 .028 .0175 0 0 -1 -1 0 0 50 372 626 0 186 38
0 192 0 +-.015 .028 .0175 1 0 0 0 0 -1 50 192 423 0 179 372 324 0 +-.01025 -.003
 260208521396521e-32 0 -1 0 0 0 -1 51 324 421 0 190 192 332 0 --.01025 -.003 260
208521396521e-32 0 1 0 6e-4 0 0 1 50 332 392 0 322 324 339 0 +-.01025 -.003 -.00
7 0 -1 0 0 0 -1 51 339 390 0 330 332 346 0 --.01025 -.003 -.007 0 1 0 6e-4 0 0 1
 50 346 361 0 337 339 353 0 +-.01025 -.003 .007 0 -1 0 0 0 -1 51 353 359 0 344 3
46 359 0 --.01025 -.003 .007 0 1 0 6e-4 0 0 1 50 359 330 0 351 353 300 0 +.01025
 -.003 .007 0 -1 0 0 0 -1 51 300 328 0 279 359 297 0 -.01025 -.003 .007 0 1 0 6e
-4 0 0 1 17 88 0 390 413 247 86 414 229 0 244 +17 413 0 390 415 88 85 244 235 0
 416 -17 247 0 390 88 415 90 417 245 0 414 +17 414 0 180 418 193 90 88 229 0 0 -
17 244 0 371 237 416 86 413 235 0 193 +15 371 595 0 237 186 0 17 237 0 371 419 2
44 96 193 224 0 0 +17 416 0 371 244 419 85 227 225 0 0 -17 193 0 180 414 98 86 2
37 224 0 0 -17 98 0 180 193 418 96 95 238 0 253 -17 418 0 180 98 414 93 92 240 0
 0 -17 95 0 379 420 253 93 98 238 0 250 +17 253 0 379 95 109 96 419 251 0 237 +1
5 379 599 0 95 370 0 17 109 0 379 253 420 89 107 228 0 227 -17 419 0 371 416 237
 89 253 251 0 0 -17 420 0 379 109 95 105 250 248 0 421 -17 107 0 187 104 227 105
 109 228 0 420 +17 227 0 187 107 101 89 416 225 0 419 +15 187 587 0 227 114 27 1
7 101 0 187 227 104 85 415 233 0 413 +17 104 0 187 101 107 102 421 231 0 417 +17
 415 0 390 247 413 102 101 233 0 0 -17 421 0 385 250 417 105 104 231 0 0 -17 417
 0 385 421 92 102 247 245 0 415 -15 385 603 0 92 378 0 17 92 0 385 417 250 90 41
8 240 0 247 +17 250 0 385 92 421 93 420 248 0 418 +83 3 388 .2666666666666665 .2
666666666666665 .2666666666666665 83 3 382 .2666666666666665 .2666666666666665 .
2666666666666665 81 1 373 909 316 114 0 184 183 367 422 83 3 375 .26666666666666
65 .2666666666666665 .2666666666666665 81 1 184 978 182 114 373 0 178 189 423 81
 1 183 908 316 177 0 178 326 373 424 83 3 422 .2666666666666665 .266666666666666
5 .2666666666666665 81 1 326 907 316 179 0 189 319 183 425 83 3 424 .26666666666
66665 .2666666666666665 .2666666666666665 81 1 189 979 182 179 326 0 184 195 426
 83 3 425 1 .96078431372549 .890196078431373 82 1 426 600703161 82 1 423 6559500
10 83 3 366 1 .96078431372549 .890196078431373 15 364 318 0 427 279 277 17 427 0
 364 427 427 0 275 273 0 0 -17 275 0 358 275 275 0 427 273 0 0 +15 358 322 0 275
 351 0 83 3 361 1 .96078431372549 .890196078431373 83 3 355 1 .96078431372549 .8
90196078431373 15 352 349 0 428 344 429 17 428 0 352 428 428 0 269 267 0 0 -15 4
29 350 0 272 344 0 17 272 0 429 272 272 0 430 264 0 0 +17 430 0 431 430 430 0 27
2 264 0 0 -15 431 334 0 430 172 280 17 269 0 345 269 269 0 428 267 0 0 +15 345 3
53 0 269 337 0 83 3 348 1 .96078431372549 .890196078431373 83 3 341 1 .960784313
72549 .890196078431373 15 338 380 0 432 330 433 17 432 0 338 432 432 0 263 261 0
 0 -15 433 381 0 266 330 0 17 266 0 433 266 266 0 434 258 0 0 +17 434 0 435 434
 434 0 266 258 0 0 -15 435 365 0 434 172 431 17 263 0 331 263 263 0 432 261 0 0
 +15 331 384 0 263 322 0 83 3 334 1 .96078431372549 .890196078431373 83 3 327 1
 .96078431372549 .890196078431373 15 323 411 0 436 190 437 17 436 0 323 436 436
 0 257 255 0 0 -15 437 412 0 260 190 0 17 260 0 437 260 260 0 438 254 0 0 +17 43
8 0 284 438 438 0 260 254 0 0 -15 284 396 0 438 172 435 17 257 0 191 257 257 0 4
36 255 0 0 +15 191 415 0 257 179 0 81 1 317 894 316 175 0 198 197 311 439 83 3 3
18 .843137254901961 .815686274509804 .752941176470588 81 1 198 981 182 175 317 0
 195 202 440 81 1 197 893 316 16 0 195 0 317 441 83 3 439 .843137254901961 .8156
86274509804 .752941176470588 83 3 441 .843137254901961 .815686274509804 .7529411
76470588 82 1 440 663158970 79 14 315 SWEntUnchanged82 1 310 1451360442 17 298 0
 291 298 298 0 216 214 0 0 -17 216 0 296 216 216 0 298 214 0 0 +15 296 291 0 216
 290 0 82 1 295 586350777 82 1 206 1451622586 82 1 199 664142010 50 188 631 0 11
4 0 181 0 +0 .028 0 0 1 0 0 0 1 82 1 185 661651642 17 23 0 63 53 62 47 66 10 0 1
60 +17 53 0 63 64 23 50 49 161 0 167 +19 17 100 0 1 0 9 5 S0 74 4 CI16 index_map
_offset0 0 1 dCCZ20 15 9 0 0 383 442 443 444 445 446 13 204 2 0 0 0 0 0 0 0 0 0
 0 0 81 2 442 702 447 1 0 443 0 0 0 448 81 2 443 710 449 1 442 444 0 0 0 450 81
 1 444 725 451 1 443 445 0 0 452 81 2 445 726 453 1 444 446 0 0 0 0 81 2 446 727
 454 1 445 13 0 0 455 0 81 2 13 756 456 1 446 2 0 0 0 457 80 2 456 458 459 9000
 0 0 0 0 3 5 0 0 0 FFTFFFFFFFFFFF9 1 82 1 457 1 79 24 459 BODY_IN_LIGHTWEIGHT_PE
RM80 2 454 460 461 8004 0 0 0 0 3 5 0 0 0 FFTFFFFFFFFFFF2 3 83 1 455 78e2 79 16
 461 SDL/TYSA_DENSITY80 2 453 462 463 9000 0 0 0 0 3 5 0 0 0 FFTFFFFFFFFFFF9 1 7
9 16 463 BODY_RECIPE_200180 1 451 464 465 9000 1 1 1 1 1 1 1 1 0 FFTFFFFFFFFFFF1
 82 1 452 22040 79 10 465 BODY_MATCH80 2 449 466 467 9000 0 0 0 0 3 5 0 0 0 FFTF
FFFFFFFFFF9 1 82 1 450 102 79 30 467 LAST_BODY_MODIFYING_FEATURE_ID80 2 447 468
 469 9000 0 0 0 0 3 5 0 0 0 FFTFFFFFFFFFFF9 1 82 1 448 138 79 19 469 ENT_TIME_ST
AMP_200180 2 12 470 471 9000 0 0 0 0 3 5 0 0 0 FFTFFFFFFFFFFF9 1 82 1 14 108 79
 12 471 ATOM_ID_20011 0 
